<?xml version="1.0" encoding="utf-8"?>
<!-- Generator: Adobe Illustrator 17.0.0, SVG Export Plug-In . SVG Version: 6.00 Build 0)  -->
<!DOCTYPE svg PUBLIC "-//W3C//DTD SVG 1.1//EN" "http://www.w3.org/Graphics/SVG/1.1/DTD/svg11.dtd">
<svg version="1.1" id="Layer_1" xmlns="http://www.w3.org/2000/svg" xmlns:xlink="http://www.w3.org/1999/xlink" x="0px" y="0px"
	 width="318px" height="73px" viewBox="0 0 318 73" enable-background="new 0 0 318 73" xml:space="preserve">
<g enable-background="new    ">
	<g>
		<g enable-background="new    ">
			<g enable-background="new    ">
				<defs>
					<path id="SVGID_1_" enable-background="new    " d="M80.874,6.828c2.393,0,4.36,3.856,4.369,8.565L83.5,18.01
						c-0.009-4.71-1.976-8.565-4.369-8.565L80.874,6.828z"/>
				</defs>
				<clipPath id="SVGID_2_">
					<use xlink:href="#SVGID_1_"  overflow="visible"/>
				</clipPath>
				<g clip-path="url(#SVGID_2_)" enable-background="new    ">
					<path fill="#207040" d="M80.874,6.828l-1.743,2.617c2.393,0,4.36,3.856,4.369,8.565l1.743-2.617
						C85.234,10.684,83.266,6.828,80.874,6.828"/>
				</g>
			</g>
			<g enable-background="new    ">
				<defs>
					<path id="SVGID_3_" enable-background="new    " d="M76.241,10.375c1.424-2.139,3.156-3.547,4.633-3.547l-1.743,2.617
						c-1.477,0-3.209,1.408-4.633,3.547C75.021,12.207,75.718,11.16,76.241,10.375z"/>
				</defs>
				<clipPath id="SVGID_4_">
					<use xlink:href="#SVGID_3_"  overflow="visible"/>
				</clipPath>
				<g clip-path="url(#SVGID_4_)" enable-background="new    ">
					<path fill="#207040" d="M76.241,10.375l-1.743,2.617c1.424-2.139,3.156-3.547,4.633-3.547l1.743-2.617
						C79.397,6.828,77.665,8.236,76.241,10.375"/>
				</g>
			</g>
			<g enable-background="new    ">
				<defs>
					<path id="SVGID_5_" enable-background="new    " d="M74.498,12.992l1.743-2.617c-0.883,1.326-1.648,2.932-2.161,4.659
						l-1.743,2.617C72.85,15.924,73.615,14.317,74.498,12.992z"/>
				</defs>
				<clipPath id="SVGID_6_">
					<use xlink:href="#SVGID_5_"  overflow="visible"/>
				</clipPath>
				<g clip-path="url(#SVGID_6_)" enable-background="new    ">
					<path fill="#207040" d="M74.08,15.034l-1.743,2.617c0.513-1.726,1.278-3.333,2.161-4.659l1.743-2.617
						C75.358,11.701,74.593,13.307,74.08,15.034"/>
				</g>
			</g>
			<g enable-background="new    ">
				<defs>
					<path id="SVGID_7_" enable-background="new    " d="M75.939,23.975l1.743-2.617c0.209-0.313,0.4-0.47,0.569-0.47
						c0.473,0,0.771,1.222,0.775,3.645l-1.743,2.617c-0.004-2.423-0.302-3.645-0.775-3.645
						C76.339,23.505,76.148,23.662,75.939,23.975z"/>
				</defs>
				<clipPath id="SVGID_8_">
					<use xlink:href="#SVGID_7_"  overflow="visible"/>
				</clipPath>
				<g clip-path="url(#SVGID_8_)" enable-background="new    ">
					<path fill="#207040" d="M79.026,24.534l-1.743,2.617c-0.004-2.423-0.302-3.645-0.775-3.645c-0.169,0-0.361,0.156-0.569,0.47
						l1.743-2.617c0.209-0.313,0.4-0.47,0.569-0.47C78.724,20.889,79.022,22.11,79.026,24.534"/>
				</g>
			</g>
			<g enable-background="new    ">
				<defs>
					<path id="SVGID_9_" enable-background="new    " d="M77.682,21.358c-0.342,0.513-0.729,1.448-1.139,2.807l-1.743,2.617
						c0.41-1.36,0.797-2.294,1.139-2.807C76.462,23.19,77.159,22.143,77.682,21.358z"/>
				</defs>
				<clipPath id="SVGID_10_">
					<use xlink:href="#SVGID_9_"  overflow="visible"/>
				</clipPath>
				<g clip-path="url(#SVGID_10_)" enable-background="new    ">
					<path fill="#207040" d="M77.682,21.358l-1.743,2.617c-0.342,0.513-0.729,1.448-1.139,2.807l1.743-2.617
						C76.953,22.806,77.34,21.871,77.682,21.358"/>
				</g>
			</g>
			<g enable-background="new    ">
				<defs>
					<path id="SVGID_11_" enable-background="new    " d="M40.299,8.872c0.848-1.273,1.946-2.044,3.14-2.044
						c2.68,0,5.961,3.703,7.283,8.224l-1.743,2.617c-1.321-4.521-4.602-8.224-7.283-8.224c-1.194,0-2.292,0.771-3.14,2.044
						C39.079,10.704,39.776,9.657,40.299,8.872z"/>
				</defs>
				<clipPath id="SVGID_12_">
					<use xlink:href="#SVGID_11_"  overflow="visible"/>
				</clipPath>
				<g clip-path="url(#SVGID_12_)" enable-background="new    ">
					<path fill="#207040" d="M40.299,8.872l-1.743,2.617c0.848-1.273,1.946-2.044,3.14-2.044c2.68,0,5.961,3.703,7.283,8.224
						l1.743-2.617c-1.321-4.521-4.602-8.224-7.283-8.224C42.244,6.828,41.146,7.599,40.299,8.872"/>
				</g>
			</g>
			<g enable-background="new    ">
				<defs>
					<path id="SVGID_13_" enable-background="new    " d="M38.556,11.489l1.743-2.617c-1.048,1.574-1.715,3.917-1.71,6.521
						l-1.743,2.617C36.841,15.406,37.507,13.064,38.556,11.489z"/>
				</defs>
				<clipPath id="SVGID_14_">
					<use xlink:href="#SVGID_13_"  overflow="visible"/>
				</clipPath>
				<g clip-path="url(#SVGID_14_)" enable-background="new    ">
					<path fill="#207040" d="M38.588,15.393l-1.743,2.617c-0.005-2.604,0.662-4.947,1.71-6.521l1.743-2.617
						C39.25,10.447,38.583,12.79,38.588,15.393"/>
				</g>
			</g>
			<g enable-background="new    ">
				<defs>
					<path id="SVGID_15_" enable-background="new    " d="M43.548,22.902l1.743-2.617c0.087-0.131,0.185-0.196,0.293-0.196
						c0.439,0,1.035,1.091,1.691,3.285l-1.743,2.617c-0.656-2.194-1.252-3.285-1.691-3.285
						C43.733,22.706,43.635,22.771,43.548,22.902z"/>
				</defs>
				<clipPath id="SVGID_16_">
					<use xlink:href="#SVGID_15_"  overflow="visible"/>
				</clipPath>
				<g clip-path="url(#SVGID_16_)" enable-background="new    ">
					<path fill="#207040" d="M47.274,23.374l-1.743,2.617c-0.656-2.194-1.252-3.285-1.691-3.285c-0.107,0-0.205,0.065-0.293,0.196
						l1.743-2.617c0.087-0.131,0.185-0.196,0.293-0.196C46.021,20.089,46.618,21.18,47.274,23.374"/>
				</g>
			</g>
			<g enable-background="new    ">
				<defs>
					<path id="SVGID_17_" enable-background="new    " d="M45.29,20.285c-0.288,0.433-0.457,1.582-0.454,3.44l-1.743,2.617
						c-0.003-1.858,0.165-3.007,0.454-3.44C44.07,22.117,44.767,21.07,45.29,20.285z"/>
				</defs>
				<clipPath id="SVGID_18_">
					<use xlink:href="#SVGID_17_"  overflow="visible"/>
				</clipPath>
				<g clip-path="url(#SVGID_18_)" enable-background="new    ">
					<path fill="#207040" d="M45.29,20.285l-1.743,2.617c-0.288,0.433-0.457,1.582-0.454,3.44l1.743-2.617
						C44.833,21.867,45.002,20.718,45.29,20.285"/>
				</g>
			</g>
			<g>
				<polygon fill="#1F6C3E" points="85.243,15.393 85.314,54.31 83.571,56.927 83.5,18.01 				"/>
			</g>
			<g>
				<polygon fill="#1F6C3E" points="50.721,15.052 57.546,38.285 55.803,40.902 48.979,17.669 				"/>
			</g>
			<g>
				<polygon fill="#1F6C3E" points="79.081,54.31 77.338,56.927 77.284,27.151 79.026,24.534 				"/>
			</g>
			<g>
				<polygon fill="#1F6C3E" points="64.89,45.826 63.147,48.442 72.337,17.651 74.08,15.034 				"/>
			</g>
			<g enable-background="new    ">
				<defs>
					<path id="SVGID_19_" enable-background="new    " d="M81.95,64.452c0.969-1.456,1.627-4.289,1.621-7.525l1.743-2.617
						c0.006,3.236-0.652,6.07-1.621,7.525C83.17,62.62,82.473,63.667,81.95,64.452z"/>
				</defs>
				<clipPath id="SVGID_20_">
					<use xlink:href="#SVGID_19_"  overflow="visible"/>
				</clipPath>
				<g clip-path="url(#SVGID_20_)" enable-background="new    ">
					<path fill="#207040" d="M85.314,54.31l-1.743,2.617c0.006,3.236-0.652,6.07-1.621,7.525l1.743-2.617
						C84.662,60.38,85.32,57.546,85.314,54.31"/>
				</g>
			</g>
			<g enable-background="new    ">
				<defs>
					<path id="SVGID_21_" enable-background="new    " d="M83.693,61.835l-1.743,2.617c-0.441,0.663-0.947,1.04-1.484,1.04
						c-1.709,0-3.119-3.856-3.128-8.565l1.743-2.617c0.009,4.71,1.419,8.565,3.128,8.565C82.746,62.875,83.252,62.498,83.693,61.835
						z"/>
				</defs>
				<clipPath id="SVGID_22_">
					<use xlink:href="#SVGID_21_"  overflow="visible"/>
				</clipPath>
				<g clip-path="url(#SVGID_22_)" enable-background="new    ">
					<path fill="#207040" d="M83.693,61.835l-1.743,2.617c-0.441,0.663-0.947,1.04-1.484,1.04c-1.709,0-3.119-3.856-3.128-8.565
						l1.743-2.617c0.009,4.71,1.419,8.565,3.128,8.565C82.746,62.875,83.252,62.498,83.693,61.835"/>
				</g>
			</g>
			<g>
				<polygon fill="#1F6C3E" points="76.543,24.165 67.353,54.678 65.61,57.295 74.801,26.782 				"/>
			</g>
			<g enable-background="new    ">
				<defs>
					<path id="SVGID_23_" enable-background="new    " d="M57.546,38.285c1.321,4.53,3.249,11.136,4.263,14.686l-1.743,2.617
						c-1.014-3.55-2.942-10.156-4.263-14.686L57.546,38.285z"/>
				</defs>
				<clipPath id="SVGID_24_">
					<use xlink:href="#SVGID_23_"  overflow="visible"/>
				</clipPath>
				<g clip-path="url(#SVGID_24_)" enable-background="new    ">
					<path fill="#207040" d="M57.546,38.285l-1.743,2.617c1.321,4.53,3.249,11.136,4.263,14.686l1.743-2.617
						C60.795,49.421,58.867,42.815,57.546,38.285"/>
				</g>
			</g>
			<g enable-background="new    ">
				<defs>
					<path id="SVGID_25_" enable-background="new    " d="M62.307,54.804l-1.743,2.617c0.554-2.04,1.412-5.033,2.583-8.979
						l1.743-2.617C63.719,49.771,62.861,52.764,62.307,54.804z"/>
				</defs>
				<clipPath id="SVGID_26_">
					<use xlink:href="#SVGID_25_"  overflow="visible"/>
				</clipPath>
				<g clip-path="url(#SVGID_26_)" enable-background="new    ">
					<path fill="#207040" d="M62.307,54.804l-1.743,2.617c0.554-2.04,1.412-5.033,2.583-8.979l1.743-2.617
						C63.719,49.771,62.861,52.764,62.307,54.804"/>
				</g>
			</g>
			<g enable-background="new    ">
				<defs>
					<path id="SVGID_27_" enable-background="new    " d="M61.809,52.971c0,0,0,0,0.498,1.833l-1.743,2.617
						c-0.498-1.833-0.498-1.833-0.498-1.833C60.589,54.803,61.286,53.756,61.809,52.971z"/>
				</defs>
				<clipPath id="SVGID_28_">
					<use xlink:href="#SVGID_27_"  overflow="visible"/>
				</clipPath>
				<g clip-path="url(#SVGID_28_)" enable-background="new    ">
					<path fill="#207040" d="M61.809,52.971l-1.743,2.617c0,0,0,0,0.498,1.833l1.743-2.617
						C61.809,52.971,61.809,52.971,61.809,52.971"/>
				</g>
			</g>
			<g>
				<polygon fill="#1F6C3E" points="56.604,54.66 54.862,57.277 45.531,25.991 47.274,23.374 				"/>
			</g>
			<g enable-background="new    ">
				<defs>
					<path id="SVGID_29_" enable-background="new    " d="M62.958,63.161c0.994-1.492,1.96-3.574,2.652-5.865l1.743-2.617
						c-0.691,2.291-1.658,4.373-2.652,5.865C64.178,61.329,63.481,62.376,62.958,63.161z"/>
				</defs>
				<clipPath id="SVGID_30_">
					<use xlink:href="#SVGID_29_"  overflow="visible"/>
				</clipPath>
				<g clip-path="url(#SVGID_30_)" enable-background="new    ">
					<path fill="#207040" d="M67.353,54.678l-1.743,2.617c-0.691,2.291-1.658,4.373-2.652,5.865l1.743-2.617
						C65.694,59.052,66.661,56.97,67.353,54.678"/>
				</g>
			</g>
			<g enable-background="new    ">
				<defs>
					<path id="SVGID_31_" enable-background="new    " d="M64.701,60.544l-1.743,2.617c-0.959,1.44-1.943,2.331-2.73,2.331
						c-1.61,0-4.018-3.694-5.367-8.215l1.743-2.617c1.348,4.521,3.757,8.215,5.367,8.215C62.757,62.875,63.742,61.984,64.701,60.544
						z"/>
				</defs>
				<clipPath id="SVGID_32_">
					<use xlink:href="#SVGID_31_"  overflow="visible"/>
				</clipPath>
				<g clip-path="url(#SVGID_32_)" enable-background="new    ">
					<path fill="#207040" d="M64.701,60.544l-1.743,2.617c-0.959,1.44-1.943,2.331-2.73,2.331c-1.61,0-4.018-3.694-5.367-8.215
						l1.743-2.617c1.348,4.521,3.757,8.215,5.367,8.215C62.757,62.875,63.742,61.984,64.701,60.544"/>
				</g>
			</g>
			<g>
				<polygon fill="#1F6C3E" points="44.837,23.725 44.893,54.31 43.15,56.927 43.094,26.342 				"/>
			</g>
			<g>
				<polygon fill="#1F6C3E" points="38.659,54.31 36.917,56.927 36.846,18.01 38.588,15.393 				"/>
			</g>
			<g enable-background="new    ">
				<defs>
					<path id="SVGID_33_" enable-background="new    " d="M41.529,64.457c0.968-1.454,1.627-4.29,1.621-7.531l1.743-2.617
						c0.006,3.24-0.653,6.076-1.622,7.531C42.748,62.626,42.051,63.672,41.529,64.457z"/>
				</defs>
				<clipPath id="SVGID_34_">
					<use xlink:href="#SVGID_33_"  overflow="visible"/>
				</clipPath>
				<g clip-path="url(#SVGID_34_)" enable-background="new    ">
					<path fill="#207040" d="M44.893,54.31l-1.743,2.617c0.006,3.24-0.653,6.076-1.621,7.531l1.743-2.617
						C44.24,60.386,44.899,57.55,44.893,54.31"/>
				</g>
			</g>
			<g enable-background="new    ">
				<defs>
					<path id="SVGID_35_" enable-background="new    " d="M43.271,61.841l-1.743,2.617c-0.439,0.659-0.942,1.035-1.475,1.035
						c-1.718,0-3.128-3.856-3.137-8.565l1.743-2.617c0.009,4.71,1.419,8.565,3.137,8.565C42.329,62.875,42.832,62.5,43.271,61.841z"
						/>
				</defs>
				<clipPath id="SVGID_36_">
					<use xlink:href="#SVGID_35_"  overflow="visible"/>
				</clipPath>
				<g clip-path="url(#SVGID_36_)" enable-background="new    ">
					<path fill="#207040" d="M43.271,61.841l-1.743,2.617c-0.439,0.659-0.942,1.035-1.475,1.035c-1.718,0-3.128-3.856-3.137-8.565
						l1.743-2.617c0.009,4.71,1.419,8.565,3.137,8.565C42.329,62.875,42.832,62.5,43.271,61.841"/>
				</g>
			</g>
		</g>
		<g enable-background="new    ">
			<g enable-background="new    ">
				<defs>
					<path id="SVGID_37_" enable-background="new    " d="M119.125,23.249c0.413-0.62,0.883-0.972,1.38-0.972l-1.743,2.617
						c-0.497,0-0.967,0.351-1.38,0.972C117.905,25.081,118.602,24.034,119.125,23.249z"/>
				</defs>
				<clipPath id="SVGID_38_">
					<use xlink:href="#SVGID_37_"  overflow="visible"/>
				</clipPath>
				<g clip-path="url(#SVGID_38_)" enable-background="new    ">
					<path fill="#207040" d="M119.125,23.249l-1.743,2.617c0.413-0.62,0.883-0.972,1.38-0.972l1.743-2.617
						C120.008,22.278,119.538,22.629,119.125,23.249"/>
				</g>
			</g>
			<g enable-background="new    ">
				<defs>
					<path id="SVGID_39_" enable-background="new    " d="M120.505,22.278c1.655,0,3.011,3.847,3.02,8.556l-1.743,2.617
						c-0.009-4.71-1.365-8.556-3.02-8.556L120.505,22.278z"/>
				</defs>
				<clipPath id="SVGID_40_">
					<use xlink:href="#SVGID_39_"  overflow="visible"/>
				</clipPath>
				<g clip-path="url(#SVGID_40_)" enable-background="new    ">
					<path fill="#207040" d="M120.505,22.278l-1.743,2.617c1.655,0,3.011,3.847,3.02,8.556l1.743-2.617
						C123.516,26.125,122.16,22.278,120.505,22.278"/>
				</g>
			</g>
			<g enable-background="new    ">
				<defs>
					<path id="SVGID_41_" enable-background="new    " d="M117.382,25.866l1.743-2.617c-0.954,1.432-1.605,4.298-1.599,7.585
						l-1.743,2.617C115.777,30.165,116.429,27.298,117.382,25.866z"/>
				</defs>
				<clipPath id="SVGID_42_">
					<use xlink:href="#SVGID_41_"  overflow="visible"/>
				</clipPath>
				<g clip-path="url(#SVGID_42_)" enable-background="new    ">
					<path fill="#207040" d="M117.525,30.834l-1.743,2.617c-0.006-3.286,0.646-6.153,1.599-7.585l1.743-2.617
						C118.171,24.682,117.519,27.548,117.525,30.834"/>
				</g>
			</g>
			<g enable-background="new    ">
				<defs>
					<path id="SVGID_43_" enable-background="new    " d="M96.409,23.254c0.415-0.623,0.886-0.976,1.385-0.976
						c1.655,0,3.011,3.847,3.02,8.556l-1.743,2.617c-0.009-4.71-1.365-8.556-3.02-8.556c-0.499,0-0.97,0.353-1.385,0.976
						C95.189,25.086,95.886,24.039,96.409,23.254z"/>
				</defs>
				<clipPath id="SVGID_44_">
					<use xlink:href="#SVGID_43_"  overflow="visible"/>
				</clipPath>
				<g clip-path="url(#SVGID_44_)" enable-background="new    ">
					<path fill="#207040" d="M96.409,23.254l-1.743,2.617c0.415-0.623,0.886-0.976,1.385-0.976c1.655,0,3.011,3.847,3.02,8.556
						l1.743-2.617c-0.009-4.71-1.365-8.556-3.02-8.556C97.295,22.278,96.824,22.631,96.409,23.254"/>
				</g>
			</g>
			<g>
				<polygon fill="#1F6C3E" points="117.55,44.028 115.807,46.645 115.783,33.451 117.525,30.834 				"/>
			</g>
			<g enable-background="new    ">
				<defs>
					<path id="SVGID_45_" enable-background="new    " d="M94.666,25.871l1.743-2.617c-0.955,1.434-1.609,4.297-1.603,7.58
						l-1.743,2.617C93.057,30.168,93.711,27.304,94.666,25.871z"/>
				</defs>
				<clipPath id="SVGID_46_">
					<use xlink:href="#SVGID_45_"  overflow="visible"/>
				</clipPath>
				<g clip-path="url(#SVGID_46_)" enable-background="new    ">
					<path fill="#207040" d="M94.805,30.834l-1.743,2.617c-0.006-3.283,0.649-6.147,1.603-7.58l1.743-2.617
						C95.454,24.688,94.799,27.551,94.805,30.834"/>
				</g>
			</g>
			<g>
				<polygon fill="#1F6C3E" points="100.814,30.834 100.823,36.227 99.081,38.844 99.071,33.451 				"/>
			</g>
			<g>
				<polygon fill="#1F6C3E" points="123.525,30.834 123.568,54.31 121.825,56.927 121.782,33.451 				"/>
			</g>
			<g enable-background="new    ">
				<defs>
					<path id="SVGID_47_" enable-background="new    " d="M115.596,53.921l-1.743,2.617c0.397-0.596,0.723-1.251,0.979-1.966
						c0.653-1.816,0.981-4.467,0.975-7.927l1.743-2.617c0.006,3.46-0.322,6.112-0.975,7.927
						C116.319,52.669,115.993,53.324,115.596,53.921z"/>
				</defs>
				<clipPath id="SVGID_48_">
					<use xlink:href="#SVGID_47_"  overflow="visible"/>
				</clipPath>
				<g clip-path="url(#SVGID_48_)" enable-background="new    ">
					<path fill="#207040" d="M115.596,53.921l-1.743,2.617c0.397-0.596,0.723-1.251,0.979-1.966
						c0.653-1.816,0.981-4.467,0.975-7.927l1.743-2.617c0.006,3.46-0.322,6.112-0.975,7.927
						C116.319,52.669,115.993,53.324,115.596,53.921"/>
				</g>
			</g>
			<g enable-background="new    ">
				<defs>
					<path id="SVGID_49_" enable-background="new    " d="M120.284,64.685c0.913-1.37,1.547-4.339,1.541-7.758l1.743-2.617
						c0.006,3.419-0.628,6.388-1.541,7.758C121.504,62.853,120.807,63.9,120.284,64.685z"/>
				</defs>
				<clipPath id="SVGID_50_">
					<use xlink:href="#SVGID_49_"  overflow="visible"/>
				</clipPath>
				<g clip-path="url(#SVGID_50_)" enable-background="new    ">
					<path fill="#207040" d="M123.568,54.31l-1.743,2.617c0.006,3.419-0.628,6.388-1.541,7.758l1.743-2.617
						C122.939,60.698,123.574,57.729,123.568,54.31"/>
				</g>
			</g>
			<g enable-background="new    ">
				<defs>
					<path id="SVGID_51_" enable-background="new    " d="M100.823,36.227c0.009,4.71,0.075,11.271,0.144,14.578l-1.743,2.617
						c-0.069-3.307-0.135-9.868-0.144-14.578L100.823,36.227z"/>
				</defs>
				<clipPath id="SVGID_52_">
					<use xlink:href="#SVGID_51_"  overflow="visible"/>
				</clipPath>
				<g clip-path="url(#SVGID_52_)" enable-background="new    ">
					<path fill="#207040" d="M100.823,36.227l-1.743,2.617c0.009,4.71,0.075,11.271,0.144,14.578l1.743-2.617
						C100.898,47.497,100.832,40.936,100.823,36.227"/>
				</g>
			</g>
			<g>
				<polygon fill="#1F6C3E" points="94.836,47.425 93.093,50.042 93.063,33.451 94.805,30.834 				"/>
			</g>
			<g enable-background="new    ">
				<defs>
					<path id="SVGID_53_" enable-background="new    " d="M113.853,56.538c-0.617,0.927-1.406,1.712-2.368,2.357
						c-1.572,1.061-3.262,1.582-5.061,1.582s-3.311-0.512-4.536-1.546c-1.225-1.034-2.028-2.454-2.409-4.26
						c-0.254-1.249-0.254-1.249-0.254-1.249l1.743-2.617c0,0,0,0,0.254,1.249c0.381,1.807,1.184,3.227,2.409,4.26
						s2.737,1.546,4.536,1.546c1.799,0,3.489-0.521,5.061-1.582c0.962-0.645,1.751-1.43,2.368-2.357
						C115.073,54.706,114.376,55.753,113.853,56.538z"/>
				</defs>
				<clipPath id="SVGID_54_">
					<use xlink:href="#SVGID_53_"  overflow="visible"/>
				</clipPath>
				<g clip-path="url(#SVGID_54_)" enable-background="new    ">
					<path fill="#207040" d="M100.967,50.805l-1.743,2.617c0,0,0,0,0.254,1.249c0.381,1.807,1.184,3.227,2.409,4.26
						c1.225,1.034,2.737,1.546,4.536,1.546s3.489-0.521,5.061-1.582c0.962-0.645,1.751-1.43,2.368-2.357l1.743-2.617
						c-0.617,0.927-1.406,1.712-2.368,2.357c-1.572,1.061-3.262,1.582-5.061,1.582c-1.799,0-3.311-0.512-4.536-1.546
						s-2.028-2.454-2.409-4.26C100.967,50.805,100.967,50.805,100.967,50.805"/>
				</g>
			</g>
			<g enable-background="new    ">
				<defs>
					<path id="SVGID_55_" enable-background="new    " d="M122.027,62.068l-1.743,2.617c-0.344,0.517-0.729,0.807-1.133,0.807
						c-1.475,0-2.683-1.348-2.686-2.984c-0.001-0.459-0.208-0.675-0.575-0.675c-0.951,0-2.977,1.45-5.301,3.92l1.743-2.617
						c2.324-2.47,4.351-3.92,5.301-3.92c0.367,0,0.574,0.217,0.575,0.675c0.003,1.636,1.211,2.984,2.686,2.984
						C121.298,62.875,121.682,62.586,122.027,62.068z"/>
				</defs>
				<clipPath id="SVGID_56_">
					<use xlink:href="#SVGID_55_"  overflow="visible"/>
				</clipPath>
				<g clip-path="url(#SVGID_56_)" enable-background="new    ">
					<path fill="#207040" d="M122.027,62.068l-1.743,2.617c-0.344,0.517-0.729,0.807-1.133,0.807c-1.475,0-2.683-1.348-2.686-2.984
						c-0.001-0.459-0.208-0.675-0.575-0.675c-0.951,0-2.977,1.45-5.301,3.92l1.743-2.617c2.324-2.47,4.351-3.92,5.301-3.92
						c0.367,0,0.574,0.217,0.575,0.675c0.003,1.636,1.211,2.984,2.686,2.984C121.298,62.875,121.682,62.586,122.027,62.068"/>
				</g>
			</g>
			<g enable-background="new    ">
				<defs>
					<path id="SVGID_57_" enable-background="new    " d="M112.332,63.136l-1.743,2.617c-0.031,0.033-0.619,0.656-5.36,0.656
						c-2.087,0-4.039-0.458-5.849-1.375c-1.819-0.926-3.161-2.076-4.045-3.46c-0.884-1.393-1.499-3.092-1.862-5.105
						c-0.245-1.357-0.375-3.496-0.381-6.426l1.743-2.617c0.005,2.93,0.135,5.069,0.381,6.426c0.363,2.013,0.978,3.712,1.862,5.105
						c0.884,1.384,2.226,2.535,4.045,3.46c1.81,0.917,3.762,1.375,5.849,1.375C111.712,63.792,112.301,63.169,112.332,63.136z"/>
				</defs>
				<clipPath id="SVGID_58_">
					<use xlink:href="#SVGID_57_"  overflow="visible"/>
				</clipPath>
				<g clip-path="url(#SVGID_58_)" enable-background="new    ">
					<path fill="#207040" d="M112.332,63.136l-1.743,2.617c-0.031,0.033-0.619,0.656-5.36,0.656c-2.087,0-4.039-0.458-5.849-1.375
						c-1.819-0.926-3.161-2.076-4.045-3.46c-0.884-1.393-1.499-3.092-1.862-5.105c-0.245-1.357-0.375-3.496-0.381-6.426l1.743-2.617
						c0.005,2.93,0.135,5.069,0.381,6.426c0.363,2.013,0.978,3.712,1.862,5.105c0.884,1.384,2.226,2.535,4.045,3.46
						c1.81,0.917,3.762,1.375,5.849,1.375C111.712,63.792,112.301,63.169,112.332,63.136"/>
				</g>
			</g>
		</g>
		<g enable-background="new    ">
			<g enable-background="new    ">
				<defs>
					<path id="SVGID_59_" enable-background="new    " d="M150.526,5.875c3.625,0,6.819,0.674,9.592,2.004
						c2.764,1.339,4.899,3.307,6.397,5.914c1.489,2.597,2.295,5.536,2.418,8.826l-1.743,2.617c-0.123-3.289-0.929-6.228-2.418-8.826
						c-1.498-2.606-3.633-4.575-6.397-5.914c-2.773-1.33-5.967-2.004-9.592-2.004L150.526,5.875z"/>
				</defs>
				<clipPath id="SVGID_60_">
					<use xlink:href="#SVGID_59_"  overflow="visible"/>
				</clipPath>
				<g clip-path="url(#SVGID_60_)" enable-background="new    ">
					<path fill="#207040" d="M150.526,5.875l-1.743,2.617c3.625,0,6.819,0.674,9.592,2.004c2.764,1.339,4.899,3.307,6.397,5.914
						c1.489,2.597,2.295,5.536,2.418,8.826l1.743-2.617c-0.123-3.289-0.929-6.228-2.418-8.826c-1.498-2.606-3.633-4.575-6.397-5.914
						C157.345,6.549,154.15,5.875,150.526,5.875"/>
				</g>
			</g>
			<g enable-background="new    ">
				<defs>
					<path id="SVGID_61_" enable-background="new    " d="M168.932,22.619l-1.743,2.617c-0.181,0.016-0.361,0.023-0.542,0.023
						c-3.233,0-6.368-2.469-7.141-5.704l1.743-2.617c0.773,3.235,3.908,5.704,7.141,5.704
						C168.571,22.643,168.751,22.635,168.932,22.619z"/>
				</defs>
				<clipPath id="SVGID_62_">
					<use xlink:href="#SVGID_61_"  overflow="visible"/>
				</clipPath>
				<g clip-path="url(#SVGID_62_)" enable-background="new    ">
					<path fill="#207040" d="M168.932,22.619l-1.743,2.617c-0.181,0.016-0.361,0.023-0.542,0.023c-3.233,0-6.368-2.469-7.141-5.704
						l1.743-2.617c0.773,3.235,3.908,5.704,7.141,5.704C168.571,22.643,168.751,22.635,168.932,22.619"/>
				</g>
			</g>
			<g enable-background="new    ">
				<defs>
					<path id="SVGID_63_" enable-background="new    " d="M135.941,12.557c1.368-2.054,3.236-3.639,5.612-4.767
						c2.687-1.276,5.681-1.914,8.973-1.914l-1.743,2.617c-3.292,0-6.286,0.638-8.973,1.914c-2.376,1.128-4.244,2.713-5.612,4.767
						C134.721,14.389,135.418,13.342,135.941,12.557z"/>
				</defs>
				<clipPath id="SVGID_64_">
					<use xlink:href="#SVGID_63_"  overflow="visible"/>
				</clipPath>
				<g clip-path="url(#SVGID_64_)" enable-background="new    ">
					<path fill="#207040" d="M135.941,12.557l-1.743,2.617c1.368-2.054,3.236-3.639,5.612-4.767
						c2.687-1.276,5.681-1.914,8.973-1.914l1.743-2.617c-3.292,0-6.286,0.638-8.973,1.914
						C139.177,8.918,137.309,10.503,135.941,12.557"/>
				</g>
			</g>
			<g enable-background="new    ">
				<defs>
					<path id="SVGID_65_" enable-background="new    " d="M139.11,19.115l1.743-2.617c0.38-0.571,0.846-1.11,1.397-1.617
						c1.787-1.645,4.637-2.472,8.549-2.472c3.76,0,6.604,0.908,8.532,2.714c1.919,1.816,1.919,1.816,1.919,1.816l-1.743,2.617
						c0,0,0,0-1.919-1.816c-1.928-1.807-4.772-2.714-8.532-2.714c-3.913,0-6.762,0.827-8.549,2.472
						C139.955,18.005,139.49,18.544,139.11,19.115z"/>
				</defs>
				<clipPath id="SVGID_66_">
					<use xlink:href="#SVGID_65_"  overflow="visible"/>
				</clipPath>
				<g clip-path="url(#SVGID_66_)" enable-background="new    ">
					<path fill="#207040" d="M161.249,16.939l-1.743,2.617c0,0,0,0-1.919-1.816c-1.928-1.807-4.772-2.714-8.532-2.714
						c-3.913,0-6.762,0.827-8.549,2.472c-0.551,0.507-1.017,1.046-1.397,1.617l1.743-2.617c0.38-0.571,0.846-1.11,1.397-1.617
						c1.787-1.645,4.637-2.472,8.549-2.472c3.76,0,6.604,0.908,8.532,2.714C161.249,16.939,161.249,16.939,161.249,16.939"/>
				</g>
			</g>
			<g enable-background="new    ">
				<defs>
					<path id="SVGID_67_" enable-background="new    " d="M162.704,52.646l-1.743,2.617c0.041-0.062,0.082-0.125,0.121-0.188
						c0.924-1.465,1.38-3.065,1.376-4.799c-0.003-1.762-0.447-3.289-1.34-4.611c-0.893-1.312-2.361-2.409-4.404-3.307
						c-1.314-0.584-4.221-1.492-8.712-2.732c-4.491-1.231-7.641-2.4-9.442-3.496c-2.341-1.402-4.08-3.137-5.235-5.213
						c-1.146-2.076-1.726-4.404-1.731-6.983c-0.005-2.822,0.692-5.473,2.09-7.927c0.162-0.285,0.333-0.563,0.512-0.832l1.743-2.617
						c-0.179,0.269-0.35,0.547-0.512,0.832c-1.399,2.454-2.095,5.105-2.09,7.927c0.005,2.579,0.585,4.907,1.731,6.983
						c1.155,2.076,2.894,3.811,5.235,5.213c1.801,1.097,4.951,2.265,9.442,3.496c4.491,1.24,7.397,2.148,8.712,2.732
						c2.043,0.899,3.512,1.995,4.404,3.307c0.893,1.321,1.336,2.849,1.34,4.611c0.003,1.735-0.453,3.334-1.376,4.799
						C162.786,52.522,162.745,52.584,162.704,52.646z"/>
				</defs>
				<clipPath id="SVGID_68_">
					<use xlink:href="#SVGID_67_"  overflow="visible"/>
				</clipPath>
				<g clip-path="url(#SVGID_68_)" enable-background="new    ">
					<path fill="#207040" d="M162.704,52.646l-1.743,2.617c0.041-0.062,0.082-0.125,0.121-0.188c0.924-1.465,1.38-3.065,1.376-4.799
						c-0.003-1.762-0.447-3.289-1.34-4.611c-0.893-1.312-2.361-2.409-4.404-3.307c-1.314-0.584-4.221-1.492-8.712-2.732
						c-4.491-1.231-7.641-2.4-9.442-3.496c-2.341-1.402-4.08-3.137-5.235-5.213c-1.146-2.076-1.726-4.404-1.731-6.983
						c-0.005-2.822,0.692-5.473,2.09-7.927c0.162-0.285,0.333-0.563,0.512-0.832l1.743-2.617c-0.179,0.269-0.35,0.547-0.512,0.832
						c-1.399,2.454-2.095,5.105-2.09,7.927c0.005,2.579,0.585,4.907,1.731,6.983c1.155,2.076,2.894,3.811,5.235,5.213
						c1.801,1.097,4.951,2.265,9.442,3.496c4.491,1.24,7.397,2.148,8.712,2.732c2.043,0.899,3.512,1.995,4.404,3.307
						c0.893,1.321,1.336,2.849,1.34,4.611c0.003,1.735-0.453,3.334-1.376,4.799C162.786,52.522,162.745,52.584,162.704,52.646"/>
				</g>
			</g>
			<g enable-background="new    ">
				<defs>
					<path id="SVGID_69_" enable-background="new    " d="M140.852,16.498c-0.852,1.28-1.275,2.72-1.273,4.324
						c0.004,2.013,0.636,3.667,1.907,4.97c1.253,1.303,4.502,2.633,9.766,4c5.255,1.357,8.864,2.552,10.827,3.568
						c2.845,1.51,4.953,3.415,6.316,5.716c1.353,2.31,2.042,4.97,2.047,7.972c0.005,2.984-0.736,5.788-2.224,8.43
						c-0.197,0.352-0.406,0.694-0.627,1.025l-1.743,2.617c0.221-0.331,0.429-0.673,0.627-1.025c1.488-2.642,2.23-5.447,2.224-8.43
						c-0.005-3.002-0.694-5.662-2.047-7.972c-1.362-2.301-3.471-4.206-6.316-5.716c-1.963-1.016-5.572-2.211-10.827-3.568
						c-5.264-1.366-8.514-2.696-9.766-4c-1.271-1.303-1.903-2.957-1.907-4.97c-0.003-1.604,0.42-3.044,1.273-4.324
						C139.632,18.33,140.329,17.283,140.852,16.498z"/>
				</defs>
				<clipPath id="SVGID_70_">
					<use xlink:href="#SVGID_69_"  overflow="visible"/>
				</clipPath>
				<g clip-path="url(#SVGID_70_)" enable-background="new    ">
					<path fill="#207040" d="M140.852,16.498l-1.743,2.617c-0.852,1.28-1.275,2.72-1.273,4.324c0.004,2.013,0.636,3.667,1.907,4.97
						c1.253,1.303,4.502,2.633,9.766,4c5.255,1.357,8.864,2.552,10.827,3.568c2.845,1.51,4.953,3.415,6.316,5.716
						c1.353,2.31,2.042,4.97,2.047,7.972c0.005,2.984-0.736,5.788-2.224,8.43c-0.197,0.352-0.406,0.694-0.627,1.025l1.743-2.617
						c0.221-0.331,0.429-0.673,0.627-1.025c1.488-2.642,2.23-5.447,2.224-8.43c-0.005-3.002-0.694-5.662-2.047-7.972
						c-1.362-2.301-3.471-4.206-6.316-5.716c-1.963-1.016-5.572-2.211-10.827-3.568c-5.264-1.366-8.514-2.696-9.766-4
						c-1.271-1.303-1.903-2.957-1.907-4.97C139.577,19.218,140,17.778,140.852,16.498"/>
				</g>
			</g>
			<g enable-background="new    ">
				<defs>
					<path id="SVGID_71_" enable-background="new    " d="M131.52,44.864c0.243-0.024,0.485-0.036,0.724-0.036
						c3.076,0,5.847,1.928,6.344,4.53l-1.743,2.617c-0.497-2.601-3.268-4.53-6.344-4.53c-0.24,0-0.482,0.012-0.724,0.036
						C130.3,46.696,130.997,45.649,131.52,44.864z"/>
				</defs>
				<clipPath id="SVGID_72_">
					<use xlink:href="#SVGID_71_"  overflow="visible"/>
				</clipPath>
				<g clip-path="url(#SVGID_72_)" enable-background="new    ">
					<path fill="#207040" d="M131.52,44.864l-1.743,2.617c0.243-0.024,0.485-0.036,0.724-0.036c3.076,0,5.847,1.928,6.344,4.53
						l1.743-2.617c-0.497-2.601-3.268-4.53-6.344-4.53C132.004,44.828,131.762,44.84,131.52,44.864"/>
				</g>
			</g>
			<g enable-background="new    ">
				<defs>
					<path id="SVGID_73_" enable-background="new    " d="M160.962,55.263c-0.916,1.376-2.285,2.464-4.091,3.272
						c-1.887,0.836-4.063,1.258-6.528,1.258c-2.779,0-5.281-0.557-7.513-1.663c-2.224-1.105-3.863-2.561-4.919-4.359
						c-1.065-1.798-1.065-1.798-1.065-1.798l1.743-2.617c0,0,0,0,1.065,1.798c1.056,1.798,2.695,3.254,4.919,4.359
						c2.233,1.105,4.734,1.663,7.513,1.663c2.464,0,4.64-0.422,6.528-1.258c1.806-0.808,3.175-1.896,4.091-3.272
						C162.181,53.431,161.484,54.478,160.962,55.263z"/>
				</defs>
				<clipPath id="SVGID_74_">
					<use xlink:href="#SVGID_73_"  overflow="visible"/>
				</clipPath>
				<g clip-path="url(#SVGID_74_)" enable-background="new    ">
					<path fill="#207040" d="M138.588,49.358l-1.743,2.617c0,0,0,0,1.065,1.798c1.056,1.798,2.695,3.254,4.919,4.359
						c2.233,1.105,4.734,1.663,7.513,1.663c2.464,0,4.64-0.422,6.528-1.258c1.806-0.808,3.175-1.896,4.091-3.272l1.743-2.617
						c-0.916,1.376-2.285,2.464-4.091,3.272c-1.887,0.836-4.063,1.258-6.528,1.258c-2.779,0-5.281-0.557-7.513-1.663
						c-2.224-1.105-3.863-2.561-4.919-4.359C138.588,49.358,138.588,49.358,138.588,49.358"/>
				</g>
			</g>
			<g enable-background="new    ">
				<defs>
					<path id="SVGID_75_" enable-background="new    " d="M167.592,56.503l-1.743,2.617c-1.434,2.153-3.361,3.862-5.775,5.132
						c-2.795,1.465-5.932,2.193-9.422,2.193c-4.425,0-8.132-0.737-11.121-2.211c-2.998-1.483-5.341-3.703-7.055-6.678
						c-1.705-2.966-2.602-6.327-2.699-10.075l1.743-2.617c0.097,3.748,0.993,7.109,2.699,10.075
						c1.714,2.975,4.057,5.195,7.055,6.678c2.989,1.474,6.696,2.211,11.121,2.211c3.49,0,6.628-0.728,9.422-2.193
						C164.231,60.365,166.158,58.657,167.592,56.503z"/>
				</defs>
				<clipPath id="SVGID_76_">
					<use xlink:href="#SVGID_75_"  overflow="visible"/>
				</clipPath>
				<g clip-path="url(#SVGID_76_)" enable-background="new    ">
					<path fill="#207040" d="M167.592,56.503l-1.743,2.617c-1.434,2.153-3.361,3.862-5.775,5.132
						c-2.795,1.465-5.932,2.193-9.422,2.193c-4.425,0-8.132-0.737-11.121-2.211c-2.998-1.483-5.341-3.703-7.055-6.678
						c-1.705-2.966-2.602-6.327-2.699-10.075l1.743-2.617c0.097,3.748,0.993,7.109,2.699,10.075
						c1.714,2.975,4.057,5.195,7.055,6.678c2.989,1.474,6.696,2.211,11.121,2.211c3.49,0,6.628-0.728,9.422-2.193
						C164.231,60.365,166.158,58.657,167.592,56.503"/>
				</g>
			</g>
		</g>
		<g enable-background="new    ">
			<g enable-background="new    ">
				<defs>
					<path id="SVGID_77_" enable-background="new    " d="M201.292,34.768l-1.743,2.617c0.43-0.646,0.606-1.345,0.479-2.073
						l1.743-2.617C201.898,33.423,201.723,34.121,201.292,34.768z"/>
				</defs>
				<clipPath id="SVGID_78_">
					<use xlink:href="#SVGID_77_"  overflow="visible"/>
				</clipPath>
				<g clip-path="url(#SVGID_78_)" enable-background="new    ">
					<path fill="#207040" d="M201.292,34.768l-1.743,2.617c0.43-0.646,0.606-1.345,0.479-2.073l1.743-2.617
						C201.898,33.423,201.723,34.121,201.292,34.768"/>
				</g>
			</g>
			<g enable-background="new    ">
				<defs>
					<path id="SVGID_79_" enable-background="new    " d="M183.473,33.999l1.743-2.617c0.28-0.42,0.586-0.819,0.919-1.195
						c1.867-2.112,4.186-3.173,6.947-3.173c3.04,0,5.525,1.33,7.446,3.973c1.244,1.708,1.244,1.708,1.244,1.708l-1.743,2.617
						c0,0,0,0-1.244-1.708c-1.921-2.642-4.406-3.973-7.446-3.973c-2.761,0-5.08,1.061-6.947,3.173
						C184.059,33.18,183.753,33.578,183.473,33.999z"/>
				</defs>
				<clipPath id="SVGID_80_">
					<use xlink:href="#SVGID_79_"  overflow="visible"/>
				</clipPath>
				<g clip-path="url(#SVGID_80_)" enable-background="new    ">
					<path fill="#207040" d="M201.771,32.695l-1.743,2.617c0,0,0,0-1.244-1.708c-1.921-2.642-4.406-3.973-7.446-3.973
						c-2.761,0-5.08,1.061-6.947,3.173c-0.333,0.376-0.639,0.775-0.919,1.195l1.743-2.617c0.28-0.42,0.586-0.819,0.919-1.195
						c1.867-2.112,4.186-3.173,6.947-3.173c3.04,0,5.525,1.33,7.446,3.973C201.771,32.695,201.771,32.695,201.771,32.695"/>
				</g>
			</g>
			<g enable-background="new    ">
				<defs>
					<path id="SVGID_81_" enable-background="new    " d="M180.143,28.281c0.293-0.44,0.603-0.862,0.931-1.266
						c3.06-3.766,7.041-5.653,11.925-5.653c4.74,0,8.611,1.842,11.622,5.536c3.002,3.703,4.514,8.898,4.526,15.603
						c0.001,0.404-0.007,1.016-0.024,1.833l-1.743,2.617c0.017-0.818,0.024-1.429,0.024-1.834c-0.012-6.705-1.524-11.9-4.526-15.603
						c-3.011-3.694-6.882-5.536-11.622-5.536c-4.884,0-8.865,1.887-11.925,5.653c-0.328,0.405-0.638,0.827-0.931,1.266
						C178.923,30.112,179.62,29.066,180.143,28.281z"/>
				</defs>
				<clipPath id="SVGID_82_">
					<use xlink:href="#SVGID_81_"  overflow="visible"/>
				</clipPath>
				<g clip-path="url(#SVGID_82_)" enable-background="new    ">
					<path fill="#207040" d="M180.143,28.281l-1.743,2.617c0.293-0.44,0.603-0.862,0.931-1.266c3.06-3.766,7.041-5.653,11.925-5.653
						c4.74,0,8.611,1.842,11.622,5.536c3.002,3.703,4.514,8.898,4.526,15.603c0.001,0.404-0.007,1.016-0.024,1.834l1.743-2.617
						c0.017-0.818,0.024-1.429,0.024-1.833c-0.012-6.705-1.524-11.9-4.526-15.603c-3.011-3.694-6.882-5.536-11.622-5.536
						c-4.884,0-8.865,1.887-11.925,5.653C180.746,27.419,180.435,27.841,180.143,28.281"/>
				</g>
			</g>
			<g enable-background="new    ">
				<defs>
					<path id="SVGID_83_" enable-background="new    " d="M199.55,37.384c-1.515,2.274-6.185,3.904-11.949,3.904l1.743-2.617
						c5.764,0,10.435-1.629,11.949-3.904C200.769,35.553,200.072,36.599,199.55,37.384z"/>
				</defs>
				<clipPath id="SVGID_84_">
					<use xlink:href="#SVGID_83_"  overflow="visible"/>
				</clipPath>
				<g clip-path="url(#SVGID_84_)" enable-background="new    ">
					<path fill="#207040" d="M189.343,38.671l-1.743,2.617c5.764,0,10.435-1.629,11.949-3.904l1.743-2.617
						C199.778,37.042,195.107,38.671,189.343,38.671"/>
				</g>
			</g>
			<g>
				<polygon fill="#1F6C3E" points="209.123,44.334 207.381,46.95 194.429,46.95 196.171,44.334 				"/>
			</g>
			<g>
				<polygon fill="#1F6C3E" points="183.029,38.671 189.343,38.671 187.6,41.288 181.286,41.288 				"/>
			</g>
			<g enable-background="new    ">
				<defs>
					<path id="SVGID_85_" enable-background="new    " d="M185.215,31.382c-1.298,1.95-2.029,4.376-2.186,7.289l-1.743,2.617
						c0.157-2.913,0.888-5.339,2.186-7.289C183.995,33.214,184.692,32.167,185.215,31.382z"/>
				</defs>
				<clipPath id="SVGID_86_">
					<use xlink:href="#SVGID_85_"  overflow="visible"/>
				</clipPath>
				<g clip-path="url(#SVGID_86_)" enable-background="new    ">
					<path fill="#207040" d="M185.215,31.382l-1.743,2.617c-1.298,1.95-2.029,4.376-2.186,7.289l1.743-2.617
						C183.186,35.758,183.917,33.332,185.215,31.382"/>
				</g>
			</g>
			<g enable-background="new    ">
				<defs>
					<path id="SVGID_87_" enable-background="new    " d="M200.755,54.212l-1.743,2.617c0.787-1.181,1.454-2.654,2.001-4.413
						l1.743-2.617C202.209,51.558,201.542,53.03,200.755,54.212z"/>
				</defs>
				<clipPath id="SVGID_88_">
					<use xlink:href="#SVGID_87_"  overflow="visible"/>
				</clipPath>
				<g clip-path="url(#SVGID_88_)" enable-background="new    ">
					<path fill="#207040" d="M200.755,54.212l-1.743,2.617c0.787-1.181,1.454-2.654,2.001-4.413l1.743-2.617
						C202.209,51.558,201.542,53.03,200.755,54.212"/>
				</g>
			</g>
			<g enable-background="new    ">
				<defs>
					<path id="SVGID_89_" enable-background="new    " d="M202.756,49.798c3.419,0.485,4.955,4.197,3.433,8.26l-1.743,2.617
						c1.522-4.062-0.014-7.774-3.433-8.26C201.536,51.63,202.233,50.583,202.756,49.798z"/>
				</defs>
				<clipPath id="SVGID_90_">
					<use xlink:href="#SVGID_89_"  overflow="visible"/>
				</clipPath>
				<g clip-path="url(#SVGID_90_)" enable-background="new    ">
					<path fill="#207040" d="M202.756,49.798l-1.743,2.617c3.419,0.485,4.955,4.197,3.433,8.26l1.743-2.617
						C207.711,53.995,206.175,50.283,202.756,49.798"/>
				</g>
			</g>
			<g enable-background="new    ">
				<defs>
					<path id="SVGID_91_" enable-background="new    " d="M183.073,51.39l1.743-2.617c1.747-2.623,6.053-4.439,11.355-4.439
						l-1.743,2.617C189.127,46.95,184.82,48.767,183.073,51.39z"/>
				</defs>
				<clipPath id="SVGID_92_">
					<use xlink:href="#SVGID_91_"  overflow="visible"/>
				</clipPath>
				<g clip-path="url(#SVGID_92_)" enable-background="new    ">
					<path fill="#207040" d="M196.171,44.334l-1.743,2.617c-5.302,0-9.609,1.817-11.355,4.439l1.743-2.617
						C186.563,46.15,190.869,44.334,196.171,44.334"/>
				</g>
			</g>
			<g enable-background="new    ">
				<defs>
					<path id="SVGID_93_" enable-background="new    " d="M184.816,48.773c-0.692,1.039-0.982,2.205-0.773,3.434l-1.743,2.617
						c-0.209-1.229,0.081-2.395,0.773-3.434C183.596,50.605,184.293,49.558,184.816,48.773z"/>
				</defs>
				<clipPath id="SVGID_94_">
					<use xlink:href="#SVGID_93_"  overflow="visible"/>
				</clipPath>
				<g clip-path="url(#SVGID_94_)" enable-background="new    ">
					<path fill="#207040" d="M184.816,48.773l-1.743,2.617c-0.692,1.039-0.982,2.205-0.773,3.434l1.743-2.617
						C183.834,50.978,184.124,49.812,184.816,48.773"/>
				</g>
			</g>
			<g enable-background="new    ">
				<defs>
					<path id="SVGID_95_" enable-background="new    " d="M199.012,56.828c-0.511,0.767-1.072,1.412-1.684,1.932
						c-1.554,1.33-3.432,1.986-5.636,1.986c-2.95,0-5.426-1.177-7.409-3.55c-1.952-2.336-1.983-2.372-1.983-2.373l1.743-2.617
						c0,0.001,0.031,0.037,1.983,2.373c1.983,2.373,4.459,3.55,7.409,3.55c2.204,0,4.082-0.656,5.636-1.986
						c0.612-0.52,1.173-1.165,1.684-1.932C200.232,54.997,199.535,56.043,199.012,56.828z"/>
				</defs>
				<clipPath id="SVGID_96_">
					<use xlink:href="#SVGID_95_"  overflow="visible"/>
				</clipPath>
				<g clip-path="url(#SVGID_96_)" enable-background="new    ">
					<path fill="#207040" d="M184.043,52.207l-1.743,2.617c0,0.001,0.031,0.037,1.983,2.373c1.983,2.373,4.459,3.55,7.409,3.55
						c2.204,0,4.082-0.656,5.636-1.986c0.612-0.52,1.173-1.165,1.684-1.932l1.743-2.617c-0.511,0.767-1.072,1.412-1.684,1.932
						c-1.554,1.33-3.432,1.986-5.636,1.986c-2.95,0-5.426-1.177-7.409-3.55C184.074,52.244,184.043,52.207,184.043,52.207"/>
				</g>
			</g>
			<g enable-background="new    ">
				<defs>
					<path id="SVGID_97_" enable-background="new    " d="M178.4,30.897l1.743-2.617c-2.439,3.663-3.656,8.543-3.645,14.642
						c0.012,6.597,1.542,11.729,4.588,15.378c3.038,3.658,7.152,5.491,12.324,5.491c4.12,0,7.499-1.15,10.14-3.442
						c2.599-2.256,2.64-2.291,2.64-2.292l-1.743,2.617c-0.001,0.001-0.041,0.036-2.64,2.292c-2.64,2.292-6.02,3.442-10.14,3.442
						c-5.172,0-9.286-1.833-12.324-5.491c-3.047-3.649-4.576-8.781-4.588-15.378C174.744,39.441,175.961,34.56,178.4,30.897z"/>
				</defs>
				<clipPath id="SVGID_98_">
					<use xlink:href="#SVGID_97_"  overflow="visible"/>
				</clipPath>
				<g clip-path="url(#SVGID_98_)" enable-background="new    ">
					<path fill="#207040" d="M206.189,58.058l-1.743,2.617c-0.001,0.001-0.041,0.036-2.64,2.292c-2.64,2.292-6.02,3.442-10.14,3.442
						c-5.172,0-9.286-1.833-12.324-5.491c-3.047-3.649-4.576-8.781-4.588-15.378c-0.011-6.099,1.206-10.979,3.645-14.642
						l1.743-2.617c-2.439,3.663-3.656,8.543-3.645,14.642c0.012,6.597,1.542,11.729,4.588,15.378
						c3.038,3.658,7.152,5.491,12.324,5.491c4.12,0,7.499-1.15,10.14-3.442C206.148,58.094,206.189,58.058,206.189,58.058"/>
				</g>
			</g>
		</g>
		<g enable-background="new    ">
			<g enable-background="new    ">
				<defs>
					<path id="SVGID_99_" enable-background="new    " d="M239.276,34.768l-1.743,2.617c0.43-0.646,0.606-1.345,0.479-2.073
						l1.743-2.617C239.882,33.423,239.706,34.121,239.276,34.768z"/>
				</defs>
				<clipPath id="SVGID_100_">
					<use xlink:href="#SVGID_99_"  overflow="visible"/>
				</clipPath>
				<g clip-path="url(#SVGID_100_)" enable-background="new    ">
					<path fill="#207040" d="M239.276,34.768l-1.743,2.617c0.43-0.646,0.606-1.345,0.479-2.073l1.743-2.617
						C239.882,33.423,239.706,34.121,239.276,34.768"/>
				</g>
			</g>
			<g enable-background="new    ">
				<defs>
					<path id="SVGID_101_" enable-background="new    " d="M221.456,33.999l1.743-2.617c0.28-0.42,0.586-0.819,0.919-1.195
						c1.867-2.112,4.186-3.173,6.947-3.173c3.04,0,5.525,1.33,7.446,3.973c1.244,1.708,1.244,1.708,1.244,1.708l-1.743,2.617
						c0,0,0,0-1.244-1.708c-1.921-2.642-4.406-3.973-7.446-3.973c-2.761,0-5.08,1.061-6.947,3.173
						C222.043,33.18,221.736,33.578,221.456,33.999z"/>
				</defs>
				<clipPath id="SVGID_102_">
					<use xlink:href="#SVGID_101_"  overflow="visible"/>
				</clipPath>
				<g clip-path="url(#SVGID_102_)" enable-background="new    ">
					<path fill="#207040" d="M239.755,32.695l-1.743,2.617c0,0,0,0-1.244-1.708c-1.921-2.642-4.406-3.973-7.446-3.973
						c-2.761,0-5.08,1.061-6.947,3.173c-0.333,0.376-0.639,0.775-0.919,1.195l1.743-2.617c0.28-0.42,0.586-0.819,0.919-1.195
						c1.867-2.112,4.186-3.173,6.947-3.173c3.04,0,5.525,1.33,7.446,3.973C239.755,32.695,239.755,32.695,239.755,32.695"/>
				</g>
			</g>
			<g enable-background="new    ">
				<defs>
					<path id="SVGID_103_" enable-background="new    " d="M218.129,28.276c0.292-0.438,0.601-0.859,0.928-1.262
						c3.06-3.766,7.041-5.653,11.934-5.653c4.731,0,8.602,1.842,11.613,5.536c3.002,3.703,4.514,8.898,4.526,15.603
						c0.001,0.404-0.007,1.016-0.024,1.833l-1.743,2.617c0.017-0.818,0.024-1.429,0.024-1.834c-0.012-6.705-1.524-11.9-4.526-15.603
						c-3.011-3.694-6.882-5.536-11.613-5.536c-4.893,0-8.874,1.887-11.934,5.653c-0.327,0.403-0.636,0.824-0.928,1.262
						C216.91,30.108,217.607,29.061,218.129,28.276z"/>
				</defs>
				<clipPath id="SVGID_104_">
					<use xlink:href="#SVGID_103_"  overflow="visible"/>
				</clipPath>
				<g clip-path="url(#SVGID_104_)" enable-background="new    ">
					<path fill="#207040" d="M218.129,28.276l-1.743,2.617c0.292-0.438,0.601-0.859,0.928-1.262
						c3.06-3.766,7.041-5.653,11.934-5.653c4.731,0,8.602,1.842,11.613,5.536c3.002,3.703,4.514,8.898,4.526,15.603
						c0.001,0.404-0.007,1.016-0.024,1.834l1.743-2.617c0.017-0.818,0.024-1.429,0.024-1.833c-0.012-6.705-1.524-11.9-4.526-15.603
						c-3.011-3.694-6.882-5.536-11.613-5.536c-4.893,0-8.874,1.887-11.934,5.653C218.731,27.418,218.421,27.838,218.129,28.276"/>
				</g>
			</g>
			<g enable-background="new    ">
				<defs>
					<path id="SVGID_105_" enable-background="new    " d="M237.533,37.384c-1.515,2.274-6.185,3.904-11.949,3.904l1.743-2.617
						c5.764,0,10.435-1.629,11.949-3.904C238.753,35.553,238.056,36.599,237.533,37.384z"/>
				</defs>
				<clipPath id="SVGID_106_">
					<use xlink:href="#SVGID_105_"  overflow="visible"/>
				</clipPath>
				<g clip-path="url(#SVGID_106_)" enable-background="new    ">
					<path fill="#207040" d="M227.327,38.671l-1.743,2.617c5.764,0,10.435-1.629,11.949-3.904l1.743-2.617
						C237.761,37.042,233.091,38.671,227.327,38.671"/>
				</g>
			</g>
			<g>
				<polygon fill="#1F6C3E" points="247.107,44.334 245.364,46.95 232.412,46.95 234.155,44.334 				"/>
			</g>
			<g>
				<polygon fill="#1F6C3E" points="221.013,38.671 227.327,38.671 225.584,41.288 219.27,41.288 				"/>
			</g>
			<g enable-background="new    ">
				<defs>
					<path id="SVGID_107_" enable-background="new    " d="M223.199,31.382c-1.298,1.95-2.029,4.376-2.186,7.289l-1.743,2.617
						c0.157-2.913,0.888-5.339,2.186-7.289C221.979,33.214,222.676,32.167,223.199,31.382z"/>
				</defs>
				<clipPath id="SVGID_108_">
					<use xlink:href="#SVGID_107_"  overflow="visible"/>
				</clipPath>
				<g clip-path="url(#SVGID_108_)" enable-background="new    ">
					<path fill="#207040" d="M223.199,31.382l-1.743,2.617c-1.298,1.95-2.029,4.376-2.186,7.289l1.743-2.617
						C221.17,35.758,221.901,33.332,223.199,31.382"/>
				</g>
			</g>
			<g enable-background="new    ">
				<defs>
					<path id="SVGID_109_" enable-background="new    " d="M238.739,54.212l-1.743,2.617c0.787-1.181,1.454-2.654,2.001-4.413
						l1.743-2.617C240.192,51.558,239.525,53.03,238.739,54.212z"/>
				</defs>
				<clipPath id="SVGID_110_">
					<use xlink:href="#SVGID_109_"  overflow="visible"/>
				</clipPath>
				<g clip-path="url(#SVGID_110_)" enable-background="new    ">
					<path fill="#207040" d="M238.739,54.212l-1.743,2.617c0.787-1.181,1.454-2.654,2.001-4.413l1.743-2.617
						C240.192,51.558,239.525,53.03,238.739,54.212"/>
				</g>
			</g>
			<g enable-background="new    ">
				<defs>
					<path id="SVGID_111_" enable-background="new    " d="M240.74,49.798c3.419,0.485,4.955,4.197,3.433,8.26l-1.743,2.617
						c1.522-4.062-0.014-7.774-3.433-8.26C239.52,51.63,240.217,50.583,240.74,49.798z"/>
				</defs>
				<clipPath id="SVGID_112_">
					<use xlink:href="#SVGID_111_"  overflow="visible"/>
				</clipPath>
				<g clip-path="url(#SVGID_112_)" enable-background="new    ">
					<path fill="#207040" d="M240.74,49.798l-1.743,2.617c3.419,0.485,4.955,4.197,3.433,8.26l1.743-2.617
						C245.695,53.995,244.159,50.283,240.74,49.798"/>
				</g>
			</g>
			<g enable-background="new    ">
				<defs>
					<path id="SVGID_113_" enable-background="new    " d="M221.057,51.39l1.743-2.617c1.747-2.623,6.053-4.439,11.355-4.439
						l-1.743,2.617C227.11,46.95,222.804,48.767,221.057,51.39z"/>
				</defs>
				<clipPath id="SVGID_114_">
					<use xlink:href="#SVGID_113_"  overflow="visible"/>
				</clipPath>
				<g clip-path="url(#SVGID_114_)" enable-background="new    ">
					<path fill="#207040" d="M234.155,44.334l-1.743,2.617c-5.302,0-9.609,1.817-11.355,4.439l1.743-2.617
						C224.546,46.15,228.853,44.334,234.155,44.334"/>
				</g>
			</g>
			<g enable-background="new    ">
				<defs>
					<path id="SVGID_115_" enable-background="new    " d="M222.8,48.773c-0.692,1.039-0.982,2.205-0.773,3.434l-1.743,2.617
						c-0.209-1.229,0.081-2.395,0.773-3.434C221.58,50.605,222.277,49.558,222.8,48.773z"/>
				</defs>
				<clipPath id="SVGID_116_">
					<use xlink:href="#SVGID_115_"  overflow="visible"/>
				</clipPath>
				<g clip-path="url(#SVGID_116_)" enable-background="new    ">
					<path fill="#207040" d="M222.8,48.773l-1.743,2.617c-0.692,1.039-0.982,2.205-0.773,3.434l1.743-2.617
						C221.818,50.978,222.108,49.812,222.8,48.773"/>
				</g>
			</g>
			<g enable-background="new    ">
				<defs>
					<path id="SVGID_117_" enable-background="new    " d="M236.996,56.828c-0.511,0.767-1.072,1.412-1.684,1.932
						c-1.554,1.33-3.432,1.986-5.636,1.986c-2.95,0-5.426-1.177-7.409-3.55c-1.952-2.336-1.983-2.372-1.983-2.373l1.743-2.617
						c0,0.001,0.031,0.037,1.983,2.373c1.983,2.373,4.459,3.55,7.409,3.55c2.204,0,4.082-0.656,5.636-1.986
						c0.612-0.52,1.173-1.165,1.684-1.932C238.216,54.997,237.519,56.043,236.996,56.828z"/>
				</defs>
				<clipPath id="SVGID_118_">
					<use xlink:href="#SVGID_117_"  overflow="visible"/>
				</clipPath>
				<g clip-path="url(#SVGID_118_)" enable-background="new    ">
					<path fill="#207040" d="M222.027,52.207l-1.743,2.617c0,0.001,0.031,0.037,1.983,2.373c1.983,2.373,4.459,3.55,7.409,3.55
						c2.204,0,4.082-0.656,5.636-1.986c0.612-0.52,1.173-1.165,1.684-1.932l1.743-2.617c-0.511,0.767-1.072,1.412-1.684,1.932
						c-1.554,1.33-3.432,1.986-5.636,1.986c-2.95,0-5.426-1.177-7.409-3.55C222.058,52.244,222.027,52.207,222.027,52.207"/>
				</g>
			</g>
			<g enable-background="new    ">
				<defs>
					<path id="SVGID_119_" enable-background="new    " d="M216.387,30.893l1.743-2.617c-2.439,3.663-3.65,8.545-3.639,14.646
						c0.012,6.597,1.533,11.729,4.579,15.378c3.038,3.658,7.152,5.491,12.333,5.491c4.111,0,7.49-1.15,10.131-3.442
						c2.599-2.256,2.64-2.291,2.64-2.292l-1.743,2.617c-0.001,0.001-0.041,0.036-2.64,2.292c-2.64,2.292-6.02,3.442-10.131,3.442
						c-5.181,0-9.295-1.833-12.333-5.491c-3.047-3.649-4.567-8.781-4.579-15.378C212.737,39.438,213.948,34.556,216.387,30.893z"/>
				</defs>
				<clipPath id="SVGID_120_">
					<use xlink:href="#SVGID_119_"  overflow="visible"/>
				</clipPath>
				<g clip-path="url(#SVGID_120_)" enable-background="new    ">
					<path fill="#207040" d="M244.173,58.058l-1.743,2.617c-0.001,0.001-0.041,0.036-2.64,2.292
						c-2.64,2.292-6.02,3.442-10.131,3.442c-5.181,0-9.295-1.833-12.333-5.491c-3.047-3.649-4.567-8.781-4.579-15.378
						c-0.011-6.101,1.2-10.983,3.639-14.646l1.743-2.617c-2.439,3.663-3.65,8.545-3.639,14.646
						c0.012,6.597,1.533,11.729,4.579,15.378c3.038,3.658,7.152,5.491,12.333,5.491c4.111,0,7.49-1.15,10.131-3.442
						C244.132,58.094,244.172,58.058,244.173,58.058"/>
				</g>
			</g>
		</g>
	</g>
</g>
<g enable-background="new    ">
	<g>
		<g enable-background="new    ">
			<g enable-background="new    ">
				<defs>
					<path id="SVGID_121_" enable-background="new    " d="M256.521,7.804c0.415-0.623,0.887-0.976,1.387-0.976l-1.743,2.617
						c-0.501,0-0.973,0.353-1.387,0.976C255.301,9.636,255.998,8.589,256.521,7.804z"/>
				</defs>
				<clipPath id="SVGID_122_">
					<use xlink:href="#SVGID_121_"  overflow="visible"/>
				</clipPath>
				<g clip-path="url(#SVGID_122_)" enable-background="new    ">
					<path fill="#207040" d="M256.521,7.804l-1.743,2.617c0.415-0.623,0.887-0.976,1.387-0.976l1.743-2.617
						C257.408,6.828,256.936,7.181,256.521,7.804"/>
				</g>
			</g>
			<g enable-background="new    ">
				<defs>
					<path id="SVGID_123_" enable-background="new    " d="M257.909,6.828c1.646,0,3.002,3.856,3.011,8.565l-1.743,2.617
						c-0.009-4.71-1.365-8.565-3.011-8.565L257.909,6.828z"/>
				</defs>
				<clipPath id="SVGID_124_">
					<use xlink:href="#SVGID_123_"  overflow="visible"/>
				</clipPath>
				<g clip-path="url(#SVGID_124_)" enable-background="new    ">
					<path fill="#207040" d="M257.909,6.828l-1.743,2.617c1.646,0,3.002,3.856,3.011,8.565l1.743-2.617
						C260.911,10.684,259.555,6.828,257.909,6.828"/>
				</g>
			</g>
			<g enable-background="new    ">
				<defs>
					<path id="SVGID_125_" enable-background="new    " d="M277.212,29.029c1.604-2.409,1.728-4.134,0.075-4.134
						c-2.141,0-6.399,2.921-9.459,6.489l1.743-2.617c3.061-3.568,7.319-6.489,9.459-6.489c1.653,0,1.53,1.725-0.075,4.134
						C278.431,27.197,277.734,28.244,277.212,29.029z"/>
				</defs>
				<clipPath id="SVGID_126_">
					<use xlink:href="#SVGID_125_"  overflow="visible"/>
				</clipPath>
				<g clip-path="url(#SVGID_126_)" enable-background="new    ">
					<path fill="#207040" d="M269.57,28.767l-1.743,2.617c3.061-3.568,7.319-6.489,9.459-6.489c1.653,0,1.53,1.725-0.075,4.134
						l1.743-2.617c1.604-2.409,1.728-4.134,0.075-4.134C276.888,22.278,272.63,25.199,269.57,28.767"/>
				</g>
			</g>
			<g enable-background="new    ">
				<defs>
					<path id="SVGID_127_" enable-background="new    " d="M278.954,26.412l-1.743,2.617c-0.464,0.697-1.052,1.452-1.757,2.238
						l1.743-2.617C277.902,27.864,278.49,27.109,278.954,26.412z"/>
				</defs>
				<clipPath id="SVGID_128_">
					<use xlink:href="#SVGID_127_"  overflow="visible"/>
				</clipPath>
				<g clip-path="url(#SVGID_128_)" enable-background="new    ">
					<path fill="#207040" d="M278.954,26.412l-1.743,2.617c-0.464,0.697-1.052,1.452-1.757,2.238l1.743-2.617
						C277.902,27.864,278.49,27.109,278.954,26.412"/>
				</g>
			</g>
			<g enable-background="new    ">
				<defs>
					<path id="SVGID_129_" enable-background="new    " d="M254.779,10.421l1.743-2.617c-0.956,1.436-1.607,4.305-1.601,7.59
						l-1.743,2.617C253.172,14.725,253.823,11.856,254.779,10.421z"/>
				</defs>
				<clipPath id="SVGID_130_">
					<use xlink:href="#SVGID_129_"  overflow="visible"/>
				</clipPath>
				<g clip-path="url(#SVGID_130_)" enable-background="new    ">
					<path fill="#207040" d="M254.92,15.393l-1.743,2.617c-0.006-3.285,0.645-6.154,1.601-7.59l1.743-2.617
						C255.565,9.239,254.914,12.109,254.92,15.393"/>
				</g>
			</g>
			<g>
				<polygon fill="#1F6D3E" points="277.197,28.65 275.454,31.267 273.372,33.586 275.114,30.969 				"/>
			</g>
			<g enable-background="new    ">
				<defs>
					<path id="SVGID_131_" enable-background="new    " d="M272.531,34.674l1.743-2.617c0.256-0.385,0.537-0.749,0.841-1.089
						l-1.743,2.617C273.068,33.925,272.787,34.289,272.531,34.674z"/>
				</defs>
				<clipPath id="SVGID_132_">
					<use xlink:href="#SVGID_131_"  overflow="visible"/>
				</clipPath>
				<g clip-path="url(#SVGID_132_)" enable-background="new    ">
					<path fill="#207040" d="M275.114,30.969l-1.743,2.617c-0.304,0.339-0.584,0.703-0.841,1.089l1.743-2.617
						C274.53,31.672,274.81,31.308,275.114,30.969"/>
				</g>
			</g>
			<g>
				<polygon fill="#1F6D3F" points="266.536,32.299 269.57,28.767 267.827,31.384 264.793,34.916 				"/>
			</g>
			<g>
				<polygon fill="#1F6C3E" points="260.919,15.393 260.947,30.223 259.204,32.84 259.177,18.01 				"/>
			</g>
			<g enable-background="new    ">
				<defs>
					<path id="SVGID_133_" enable-background="new    " d="M260.947,30.223c0.005,2.78,0.885,4.244,2.235,4.244
						c0.937,0,2.1-0.706,3.355-2.168l-1.743,2.617c-1.254,1.462-2.418,2.168-3.355,2.168c-1.35,0-2.23-1.465-2.235-4.244
						L260.947,30.223z"/>
				</defs>
				<clipPath id="SVGID_134_">
					<use xlink:href="#SVGID_133_"  overflow="visible"/>
				</clipPath>
				<g clip-path="url(#SVGID_134_)" enable-background="new    ">
					<path fill="#207040" d="M260.947,30.223l-1.743,2.617c0.005,2.78,0.885,4.244,2.235,4.244c0.937,0,2.1-0.706,3.355-2.168
						l1.743-2.617c-1.254,1.462-2.418,2.168-3.355,2.168C261.832,34.467,260.952,33.003,260.947,30.223"/>
				</g>
			</g>
			<g enable-background="new    ">
				<defs>
					<path id="SVGID_135_" enable-background="new    " d="M274.273,32.058c-2.394,3.595-2.698,9.002-0.546,12.672l-1.743,2.617
						c-2.151-3.669-1.848-9.076,0.546-12.672C273.054,33.889,273.751,32.843,274.273,32.058z"/>
				</defs>
				<clipPath id="SVGID_136_">
					<use xlink:href="#SVGID_135_"  overflow="visible"/>
				</clipPath>
				<g clip-path="url(#SVGID_136_)" enable-background="new    ">
					<path fill="#207040" d="M274.273,32.058l-1.743,2.617c-2.394,3.595-2.698,9.002-0.546,12.672l1.743-2.617
						C271.576,41.06,271.879,35.653,274.273,32.058"/>
				</g>
			</g>
			<g>
				<polygon fill="#1F6C3E" points="273.727,44.729 280.025,55.478 278.283,58.095 271.985,47.346 				"/>
			</g>
			<g enable-background="new    ">
				<defs>
					<path id="SVGID_137_" enable-background="new    " d="M261.127,47.36l1.743-2.617c0.074-0.111,0.149-0.209,0.225-0.292
						c0.217-0.241,0.494-0.356,0.816-0.356c1.394,0,3.632,2.149,5.516,5.479l-1.743,2.617c-1.884-3.329-4.122-5.479-5.516-5.479
						c-0.322,0-0.599,0.115-0.816,0.356C261.277,47.151,261.201,47.248,261.127,47.36z"/>
				</defs>
				<clipPath id="SVGID_138_">
					<use xlink:href="#SVGID_137_"  overflow="visible"/>
				</clipPath>
				<g clip-path="url(#SVGID_138_)" enable-background="new    ">
					<path fill="#207040" d="M269.428,49.573l-1.743,2.617c-1.884-3.329-4.122-5.479-5.516-5.479c-0.322,0-0.599,0.115-0.816,0.356
						c-0.076,0.083-0.151,0.181-0.225,0.292l1.743-2.617c0.074-0.111,0.149-0.209,0.225-0.292c0.217-0.241,0.494-0.356,0.816-0.356
						C265.306,44.095,267.544,46.244,269.428,49.573"/>
				</g>
			</g>
			<g>
				<polygon fill="#1F6C3E" points="272.73,55.415 270.988,58.032 267.685,52.19 269.428,49.573 				"/>
			</g>
			<g enable-background="new    ">
				<defs>
					<path id="SVGID_139_" enable-background="new    " d="M279.965,64.967c0.728-1.092,0.137-3.77-1.682-6.872l1.743-2.617
						c1.819,3.102,2.41,5.78,1.682,6.872C281.185,63.136,280.488,64.182,279.965,64.967z"/>
				</defs>
				<clipPath id="SVGID_140_">
					<use xlink:href="#SVGID_139_"  overflow="visible"/>
				</clipPath>
				<g clip-path="url(#SVGID_140_)" enable-background="new    ">
					<path fill="#207040" d="M280.025,55.478l-1.743,2.617c1.819,3.102,2.41,5.78,1.682,6.872l1.743-2.617
						C282.435,61.258,281.844,58.581,280.025,55.478"/>
				</g>
			</g>
			<g enable-background="new    ">
				<defs>
					<path id="SVGID_141_" enable-background="new    " d="M281.707,62.351l-1.743,2.617c-0.225,0.338-0.577,0.524-1.057,0.524
						c-2.033,0-5.601-3.361-7.92-7.46l1.743-2.617c2.319,4.098,5.887,7.46,7.92,7.46C281.131,62.875,281.482,62.689,281.707,62.351z
						"/>
				</defs>
				<clipPath id="SVGID_142_">
					<use xlink:href="#SVGID_141_"  overflow="visible"/>
				</clipPath>
				<g clip-path="url(#SVGID_142_)" enable-background="new    ">
					<path fill="#207040" d="M281.707,62.351l-1.743,2.617c-0.225,0.338-0.577,0.524-1.057,0.524c-2.033,0-5.601-3.361-7.92-7.46
						l1.743-2.617c2.319,4.098,5.887,7.46,7.92,7.46C281.131,62.875,281.482,62.689,281.707,62.351"/>
				</g>
			</g>
			<g>
				<polygon fill="#1F6C3E" points="254.991,54.31 253.249,56.927 253.178,18.01 254.92,15.393 				"/>
			</g>
			<g enable-background="new    ">
				<defs>
					<path id="SVGID_143_" enable-background="new    " d="M262.87,44.743c-1.061,1.593-1.886,5.946-1.878,10.079
						c0.006,3.02-0.616,5.664-1.534,7.041l-1.743,2.617c0.918-1.378,1.539-4.022,1.534-7.041c-0.008-4.133,0.818-8.487,1.878-10.079
						C261.65,46.574,262.347,45.528,262.87,44.743z"/>
				</defs>
				<clipPath id="SVGID_144_">
					<use xlink:href="#SVGID_143_"  overflow="visible"/>
				</clipPath>
				<g clip-path="url(#SVGID_144_)" enable-background="new    ">
					<path fill="#207040" d="M262.87,44.743l-1.743,2.617c-1.061,1.593-1.886,5.946-1.878,10.079
						c0.006,3.02-0.616,5.664-1.534,7.041l1.743-2.617c0.918-1.378,1.539-4.022,1.534-7.041
						C260.984,50.689,261.809,46.336,262.87,44.743"/>
				</g>
			</g>
			<g enable-background="new    ">
				<defs>
					<path id="SVGID_145_" enable-background="new    " d="M259.458,61.864l-1.743,2.617c-0.429,0.644-0.922,1.011-1.447,1.011
						c-1.655,0-3.011-3.856-3.02-8.565l1.743-2.617c0.009,4.71,1.365,8.565,3.02,8.565
						C258.535,62.875,259.029,62.508,259.458,61.864z"/>
				</defs>
				<clipPath id="SVGID_146_">
					<use xlink:href="#SVGID_145_"  overflow="visible"/>
				</clipPath>
				<g clip-path="url(#SVGID_146_)" enable-background="new    ">
					<path fill="#207040" d="M259.458,61.864l-1.743,2.617c-0.429,0.644-0.922,1.011-1.447,1.011c-1.655,0-3.011-3.856-3.02-8.565
						l1.743-2.617c0.009,4.71,1.365,8.565,3.02,8.565C258.535,62.875,259.029,62.508,259.458,61.864"/>
				</g>
			</g>
		</g>
	</g>
</g>
<g>
	<g>
		<g enable-background="new    ">
			<g enable-background="new    ">
				<defs>
					<path id="SVGID_147_" enable-background="new    " d="M179.149,15.085c2.295,0.548,4.342,3.4,4.45,3.55l-1.743,2.617
						c-0.108-0.15-2.155-3.002-4.45-3.55C177.929,16.917,178.626,15.87,179.149,15.085z"/>
				</defs>
				<clipPath id="SVGID_148_">
					<use xlink:href="#SVGID_147_"  overflow="visible"/>
				</clipPath>
				<g clip-path="url(#SVGID_148_)" enable-background="new    ">
					<path fill="#207040" d="M179.149,15.085l-1.743,2.617c2.295,0.548,4.342,3.4,4.45,3.55l1.743-2.617
						C183.491,18.485,181.444,15.634,179.149,15.085"/>
				</g>
			</g>
			<g>
				<polygon fill="#1F6C3E" points="183.599,18.636 181.856,21.252 177.406,17.702 179.149,15.085 				"/>
			</g>
			<g enable-background="new    ">
				<defs>
					<path id="SVGID_149_" enable-background="new    " d="M183.599,18.636c1.111,2.454-0.139,6.142-0.204,6.336l-1.743,2.617
						c0.066-0.194,1.315-3.883,0.204-6.336C182.379,20.467,183.076,19.421,183.599,18.636z"/>
				</defs>
				<clipPath id="SVGID_150_">
					<use xlink:href="#SVGID_149_"  overflow="visible"/>
				</clipPath>
				<g clip-path="url(#SVGID_150_)" enable-background="new    ">
					<path fill="#207040" d="M183.599,18.636l-1.743,2.617c1.111,2.454-0.139,6.142-0.204,6.336l1.743-2.617
						C183.46,24.778,184.71,21.089,183.599,18.636"/>
				</g>
			</g>
			<g>
				<polygon fill="#1F6C3E" points="183.395,24.972 181.652,27.589 181.856,21.252 183.599,18.636 				"/>
			</g>
			<g>
				<polygon fill="#1F6C3E" points="179.149,15.085 183.395,24.972 181.652,27.589 177.406,17.702 				"/>
			</g>
			<g enable-background="new    ">
				<defs>
					<path id="SVGID_151_" enable-background="new    " d="M176.369,19.003l1.743-2.617c-3.836,5.76,4.798,8.436,5.283,8.586
						l-1.743,2.617C181.167,27.438,172.533,24.763,176.369,19.003z"/>
				</defs>
				<clipPath id="SVGID_152_">
					<use xlink:href="#SVGID_151_"  overflow="visible"/>
				</clipPath>
				<g clip-path="url(#SVGID_152_)" enable-background="new    ">
					<path fill="#207040" d="M183.395,24.972l-1.743,2.617c-0.485-0.15-9.119-2.826-5.283-8.586l1.743-2.617
						C174.276,22.146,182.909,24.821,183.395,24.972"/>
				</g>
			</g>
			<g enable-background="new    ">
				<defs>
					<path id="SVGID_153_" enable-background="new    " d="M178.111,16.386c0.278-0.417,0.621-0.851,1.038-1.301l-1.743,2.617
						c-0.417,0.45-0.76,0.883-1.038,1.3C176.892,18.218,177.589,17.171,178.111,16.386z"/>
				</defs>
				<clipPath id="SVGID_154_">
					<use xlink:href="#SVGID_153_"  overflow="visible"/>
				</clipPath>
				<g clip-path="url(#SVGID_154_)" enable-background="new    ">
					<path fill="#207040" d="M178.111,16.386l-1.743,2.617c0.278-0.417,0.621-0.851,1.038-1.301l1.743-2.617
						C178.732,15.535,178.389,15.969,178.111,16.386"/>
				</g>
			</g>
		</g>
	</g>
</g>
<g>
	<g>
		<g enable-background="new    ">
			<g enable-background="new    ">
				<defs>
					<path id="SVGID_155_" enable-background="new    " d="M191.891,10.838c1.99,1.276,2.979,4.632,3.031,4.808l-1.743,2.617
						c-0.052-0.177-1.041-3.532-3.031-4.808C190.671,12.67,191.368,11.623,191.891,10.838z"/>
				</defs>
				<clipPath id="SVGID_156_">
					<use xlink:href="#SVGID_155_"  overflow="visible"/>
				</clipPath>
				<g clip-path="url(#SVGID_156_)" enable-background="new    ">
					<path fill="#207040" d="M191.891,10.838l-1.743,2.617c1.99,1.276,2.979,4.632,3.031,4.808l1.743-2.617
						C194.87,15.47,193.881,12.114,191.891,10.838"/>
				</g>
			</g>
			<g>
				<polygon fill="#1F6C3E" points="194.922,15.646 193.179,18.263 190.148,13.455 191.891,10.838 				"/>
			</g>
			<g enable-background="new    ">
				<defs>
					<path id="SVGID_157_" enable-background="new    " d="M189.078,13.161c0.536-0.804,1.432-1.592,2.813-2.323l-1.743,2.617
						c-1.381,0.731-2.277,1.519-2.813,2.323C187.859,14.993,188.556,13.946,189.078,13.161z"/>
				</defs>
				<clipPath id="SVGID_158_">
					<use xlink:href="#SVGID_157_"  overflow="visible"/>
				</clipPath>
				<g clip-path="url(#SVGID_158_)" enable-background="new    ">
					<path fill="#207040" d="M189.078,13.161l-1.743,2.617c0.536-0.804,1.432-1.592,2.813-2.323l1.743-2.617
						C190.51,11.569,189.614,12.357,189.078,13.161"/>
				</g>
			</g>
			<g enable-background="new    ">
				<defs>
					<path id="SVGID_159_" enable-background="new    " d="M191.405,23.466c0.726-1.091,1.948-3.247,1.774-5.203l1.743-2.617
						c0.174,1.956-1.048,4.112-1.774,5.203C192.625,21.634,191.928,22.681,191.405,23.466z"/>
				</defs>
				<clipPath id="SVGID_160_">
					<use xlink:href="#SVGID_159_"  overflow="visible"/>
				</clipPath>
				<g clip-path="url(#SVGID_160_)" enable-background="new    ">
					<path fill="#207040" d="M194.922,15.646l-1.743,2.617c0.174,1.956-1.048,4.112-1.774,5.203l1.743-2.617
						C193.874,19.758,195.096,17.602,194.922,15.646"/>
				</g>
			</g>
			<g>
				<polygon fill="#1F6C3E" points="192.639,21.56 190.897,24.177 193.179,18.263 194.922,15.646 				"/>
			</g>
			<g enable-background="new    ">
				<defs>
					<path id="SVGID_161_" enable-background="new    " d="M193.148,20.849l-1.743,2.617c-0.272,0.408-0.474,0.667-0.508,0.711
						l1.743-2.617C192.673,21.516,192.876,21.257,193.148,20.849z"/>
				</defs>
				<clipPath id="SVGID_162_">
					<use xlink:href="#SVGID_161_"  overflow="visible"/>
				</clipPath>
				<g clip-path="url(#SVGID_162_)" enable-background="new    ">
					<path fill="#207040" d="M193.148,20.849l-1.743,2.617c-0.272,0.408-0.474,0.667-0.508,0.711l1.743-2.617
						C192.673,21.516,192.876,21.257,193.148,20.849"/>
				</g>
			</g>
			<g>
				<polygon fill="#1F6C3E" points="191.891,10.838 192.639,21.56 190.897,24.177 190.148,13.455 				"/>
			</g>
			<g enable-background="new    ">
				<defs>
					<path id="SVGID_163_" enable-background="new    " d="M187.336,15.778l1.743-2.617c-2.578,3.871,3.198,8.131,3.561,8.399
						l-1.743,2.617C190.533,23.909,184.758,19.649,187.336,15.778z"/>
				</defs>
				<clipPath id="SVGID_164_">
					<use xlink:href="#SVGID_163_"  overflow="visible"/>
				</clipPath>
				<g clip-path="url(#SVGID_164_)" enable-background="new    ">
					<path fill="#207040" d="M192.639,21.56l-1.743,2.617c-0.363-0.268-6.138-4.528-3.561-8.399l1.743-2.617
						C186.501,17.032,192.276,21.292,192.639,21.56"/>
				</g>
			</g>
		</g>
	</g>
</g>
<g>
	<g>
		<g enable-background="new    ">
			<g enable-background="new    ">
				<defs>
					<path id="SVGID_165_" enable-background="new    " d="M231.959,10.721c1.891,1.42,2.624,4.852,2.663,5.033l-1.743,2.617
						c-0.039-0.181-0.771-3.613-2.663-5.033C230.739,12.553,231.436,11.506,231.959,10.721z"/>
				</defs>
				<clipPath id="SVGID_166_">
					<use xlink:href="#SVGID_165_"  overflow="visible"/>
				</clipPath>
				<g clip-path="url(#SVGID_166_)" enable-background="new    ">
					<path fill="#207040" d="M231.959,10.721l-1.743,2.617c1.891,1.42,2.624,4.852,2.663,5.033l1.743-2.617
						C234.583,15.573,233.85,12.141,231.959,10.721"/>
				</g>
			</g>
			<g>
				<polygon fill="#1F6C3E" points="234.621,15.754 232.879,18.371 230.216,13.338 231.959,10.721 				"/>
			</g>
			<g enable-background="new    ">
				<defs>
					<path id="SVGID_167_" enable-background="new    " d="M228.791,13.089c0.572-0.86,1.573-1.671,3.167-2.368l-1.743,2.617
						c-1.595,0.696-2.595,1.508-3.167,2.368C227.572,14.92,228.269,13.874,228.791,13.089z"/>
				</defs>
				<clipPath id="SVGID_168_">
					<use xlink:href="#SVGID_167_"  overflow="visible"/>
				</clipPath>
				<g clip-path="url(#SVGID_168_)" enable-background="new    ">
					<path fill="#207040" d="M228.791,13.089l-1.743,2.617c0.572-0.86,1.573-1.671,3.167-2.368l1.743-2.617
						C230.364,11.417,229.364,12.229,228.791,13.089"/>
				</g>
			</g>
			<g enable-background="new    ">
				<defs>
					<path id="SVGID_169_" enable-background="new    " d="M231.353,22.533c0.74-1.111,1.543-2.666,1.526-4.162l1.743-2.617
						c0.018,1.496-0.786,3.051-1.526,4.162C232.573,20.701,231.876,21.748,231.353,22.533z"/>
				</defs>
				<clipPath id="SVGID_170_">
					<use xlink:href="#SVGID_169_"  overflow="visible"/>
				</clipPath>
				<g clip-path="url(#SVGID_170_)" enable-background="new    ">
					<path fill="#207040" d="M234.621,15.754l-1.743,2.617c0.018,1.496-0.786,3.051-1.526,4.162l1.743-2.617
						C233.835,18.805,234.639,17.25,234.621,15.754"/>
				</g>
			</g>
			<g>
				<polygon fill="#1F6C3E" points="231.897,21.47 230.155,24.087 232.879,18.371 234.621,15.754 				"/>
			</g>
			<g enable-background="new    ">
				<defs>
					<path id="SVGID_171_" enable-background="new    " d="M233.096,19.916l-1.743,2.617c-0.589,0.884-1.137,1.487-1.198,1.554
						l1.743-2.617C231.958,21.403,232.507,20.8,233.096,19.916z"/>
				</defs>
				<clipPath id="SVGID_172_">
					<use xlink:href="#SVGID_171_"  overflow="visible"/>
				</clipPath>
				<g clip-path="url(#SVGID_172_)" enable-background="new    ">
					<path fill="#207040" d="M233.096,19.916l-1.743,2.617c-0.589,0.884-1.137,1.487-1.198,1.554l1.743-2.617
						C231.958,21.403,232.507,20.8,233.096,19.916"/>
				</g>
			</g>
			<g>
				<polygon fill="#1F6C3E" points="231.959,10.721 231.897,21.47 230.155,24.087 230.216,13.338 				"/>
			</g>
			<g enable-background="new    ">
				<defs>
					<path id="SVGID_173_" enable-background="new    " d="M227.049,15.706l1.743-2.617c-2.412,3.622,2.773,8.094,3.106,8.381
						l-1.743,2.617C229.821,23.799,224.637,19.327,227.049,15.706z"/>
				</defs>
				<clipPath id="SVGID_174_">
					<use xlink:href="#SVGID_173_"  overflow="visible"/>
				</clipPath>
				<g clip-path="url(#SVGID_174_)" enable-background="new    ">
					<path fill="#207040" d="M231.897,21.47l-1.743,2.617c-0.333-0.288-5.518-4.76-3.106-8.382l1.743-2.617
						C226.38,16.711,231.564,21.183,231.897,21.47"/>
				</g>
			</g>
		</g>
	</g>
</g>
<g>
	<g>
		<g enable-background="new    ">
			<g enable-background="new    ">
				<defs>
					<path id="SVGID_175_" enable-background="new    " d="M244.316,14.563c1.209,2.031,0.574,5.472,0.541,5.653l-1.743,2.617
						c0.033-0.181,0.668-3.622-0.541-5.653C243.096,16.395,243.793,15.348,244.316,14.563z"/>
				</defs>
				<clipPath id="SVGID_176_">
					<use xlink:href="#SVGID_175_"  overflow="visible"/>
				</clipPath>
				<g clip-path="url(#SVGID_176_)" enable-background="new    ">
					<path fill="#207040" d="M244.316,14.563l-1.743,2.617c1.209,2.031,0.574,5.472,0.541,5.653l1.743-2.617
						C244.89,20.036,245.525,16.595,244.316,14.563"/>
				</g>
			</g>
			<g>
				<polygon fill="#1F6C3E" points="244.857,20.217 243.114,22.833 242.573,17.18 244.316,14.563 				"/>
			</g>
		</g>
		<g enable-background="new    ">
			<g enable-background="new    ">
				<defs>
					<path id="SVGID_177_" enable-background="new    " d="M239.436,16.575c0.763-1.145,2.241-1.962,4.88-2.012l-1.743,2.617
						c-2.639,0.05-4.117,0.866-4.88,2.012C238.216,18.407,238.913,17.36,239.436,16.575z"/>
				</defs>
				<clipPath id="SVGID_178_">
					<use xlink:href="#SVGID_177_"  overflow="visible"/>
				</clipPath>
				<g clip-path="url(#SVGID_178_)" enable-background="new    ">
					<path fill="#207040" d="M239.436,16.575l-1.743,2.617c0.763-1.145,2.241-1.962,4.88-2.012l1.743-2.617
						C241.676,14.613,240.199,15.43,239.436,16.575"/>
				</g>
			</g>
			<g enable-background="new    ">
				<defs>
					<path id="SVGID_179_" enable-background="new    " d="M242.656,23.693c0.182-0.274,0.338-0.561,0.458-0.86l1.743-2.617
						c-0.12,0.299-0.276,0.586-0.458,0.86C243.876,21.861,243.179,22.908,242.656,23.693z"/>
				</defs>
				<clipPath id="SVGID_180_">
					<use xlink:href="#SVGID_179_"  overflow="visible"/>
				</clipPath>
				<g clip-path="url(#SVGID_180_)" enable-background="new    ">
					<path fill="#207040" d="M244.857,20.217l-1.743,2.617c-0.12,0.299-0.276,0.586-0.458,0.86l1.743-2.617
						C244.581,20.803,244.737,20.516,244.857,20.217"/>
				</g>
			</g>
			<g>
				<polygon fill="#1F6C3E" points="240.142,24.459 244.857,20.217 243.114,22.833 238.4,27.076 				"/>
			</g>
			<g enable-background="new    ">
				<defs>
					<path id="SVGID_181_" enable-background="new    " d="M244.399,21.076l-1.743,2.617c-1.34,2.013-4.093,3.306-4.256,3.383
						l1.743-2.617C240.306,24.382,243.058,23.089,244.399,21.076z"/>
				</defs>
				<clipPath id="SVGID_182_">
					<use xlink:href="#SVGID_181_"  overflow="visible"/>
				</clipPath>
				<g clip-path="url(#SVGID_182_)" enable-background="new    ">
					<path fill="#207040" d="M244.399,21.076l-1.743,2.617c-1.341,2.013-4.093,3.306-4.256,3.383l1.743-2.617
						C240.306,24.382,243.058,23.089,244.399,21.076"/>
				</g>
			</g>
			<g>
				<polygon fill="#1F6C3E" points="244.316,14.563 240.142,24.459 238.4,27.076 242.573,17.18 				"/>
			</g>
			<g enable-background="new    ">
				<defs>
					<path id="SVGID_183_" enable-background="new    " d="M237.693,19.192l1.743-2.617c-1.86,2.793,0.533,7.539,0.707,7.884
						l-1.743,2.617C238.226,26.731,235.834,21.984,237.693,19.192z"/>
				</defs>
				<clipPath id="SVGID_184_">
					<use xlink:href="#SVGID_183_"  overflow="visible"/>
				</clipPath>
				<g clip-path="url(#SVGID_184_)" enable-background="new    ">
					<path fill="#207040" d="M240.142,24.459l-1.743,2.617c-0.174-0.345-2.566-5.091-0.707-7.884l1.743-2.617
						C237.576,19.368,239.969,24.114,240.142,24.459"/>
				</g>
			</g>
		</g>
	</g>
</g>
<g>
</g>
</svg>
