<?xml version="1.0" encoding="utf-8"?>
<!-- Generator: Adobe Illustrator 17.0.0, SVG Export Plug-In . SVG Version: 6.00 Build 0)  -->
<!DOCTYPE svg PUBLIC "-//W3C//DTD SVG 1.1//EN" "http://www.w3.org/Graphics/SVG/1.1/DTD/svg11.dtd">
<svg version="1.1" id="Layer_1" xmlns="http://www.w3.org/2000/svg" xmlns:xlink="http://www.w3.org/1999/xlink" x="0px" y="0px"
	 width="318px" height="73px" viewBox="0 0 318 73" enable-background="new 0 0 318 73" xml:space="preserve">
<g>
	<image overflow="visible" opacity="0.75" width="270" height="70" xlink:href="CF25B369.png"  transform="matrix(1 0 0 1 28.5 4)">
	</image>
	<g>
		<g>
			<g enable-background="new    ">
				<g>
					<g>
						<path fill="#39C973" d="M31.008,67.201c-1.859,0-3.38-4.18-3.38-9.29v-42.22c0-5.109,2.376-9.29,5.278-9.29
							s6.447,4.013,7.876,8.918l7.347,25.211c1.429,4.905,3.5,12.073,4.6,15.928c0,0,0,0,0.53,1.991
							c0.603-2.212,1.542-5.46,2.82-9.746L66.098,15.3c1.468-4.894,4.792-8.898,7.387-8.898s4.718,4.18,4.718,9.29v42.219
							c0,5.109-1.521,9.29-3.38,9.29s-3.38-4.18-3.38-9.29V25.604c0-5.109-1.21-5.289-2.691-0.398L58.733,58.309
							c-1.48,4.89-4.114,8.892-5.854,8.892s-4.35-4.008-5.801-8.908L37.025,24.351c-1.451-4.9-2.638-4.727-2.638,0.382v33.178
							C34.388,63.02,32.867,67.201,31.008,67.201z"/>
					</g>
					<g>
						<path fill="#39C973" d="M116.76,67.201c-1.601,0-2.91-1.456-2.91-3.236s-2.871-0.195-6.378,3.52c0,0-0.672,0.71-5.805,0.71
							c-2.267,0-4.381-0.498-6.345-1.493c-1.964-0.995-3.423-2.245-4.374-3.753c-0.952-1.508-1.62-3.352-2.007-5.537
							c-0.265-1.465-0.398-3.788-0.398-6.967V32.446c0-5.109,1.464-9.29,3.254-9.29s3.254,4.18,3.254,9.29v5.847
							c0,5.109,0.06,12.227,0.133,15.815c0,0,0,0,0.265,1.355c0.41,1.963,1.277,3.505,2.602,4.624c1.326,1.12,2.963,1.68,4.917,1.68
							s3.784-0.575,5.496-1.721c1.711-1.147,2.922-2.71,3.634-4.686c0.71-1.976,1.067-4.845,1.067-8.605V32.446
							c0-5.109,1.464-9.29,3.253-9.29s3.253,4.18,3.253,9.29v25.465C119.67,63.02,118.36,67.201,116.76,67.201z"/>
					</g>
					<g>
						<path fill="#39C973" d="M128.309,47.667L128.309,47.667c3.639-0.365,7.084,1.827,7.657,4.873c0,0,0,0,1.145,1.95
							c1.144,1.95,2.922,3.525,5.332,4.729c2.41,1.202,5.121,1.804,8.134,1.804c2.675,0,5.036-0.457,7.085-1.368
							c2.048-0.913,3.573-2.163,4.573-3.753s1.501-3.324,1.501-5.205c0-1.908-0.483-3.573-1.447-4.998
							c-0.965-1.424-2.555-2.62-4.772-3.587c-1.423-0.636-4.568-1.624-9.436-2.965c-4.868-1.342-8.279-2.605-10.231-3.794
							c-2.531-1.521-4.417-3.407-5.657-5.661c-1.242-2.253-1.862-4.776-1.862-7.569c0-3.07,0.759-5.937,2.277-8.605
							c1.52-2.667,3.736-4.693,6.653-6.076c2.916-1.383,6.158-2.074,9.725-2.074c3.928,0,7.393,0.726,10.394,2.178
							c3.001,1.452,5.308,3.587,6.924,6.407c1.614,2.82,2.482,6.013,2.602,9.58l0,0c-3.699,0.32-7.437-2.455-8.309-6.166
							c0,0,0,0-2.085-1.963s-5.164-2.945-9.237-2.945c-4.241,0-7.332,0.892-9.273,2.675c-1.94,1.784-2.91,3.934-2.91,6.448
							c0,2.184,0.687,3.981,2.061,5.392c1.35,1.411,4.874,2.855,10.574,4.334c5.7,1.48,9.611,2.772,11.732,3.878
							c3.084,1.631,5.363,3.697,6.832,6.2c1.469,2.503,2.206,5.385,2.206,8.647c0,3.236-0.807,6.283-2.422,9.145
							c-1.615,2.863-3.935,5.087-6.959,6.677c-3.024,1.59-6.43,2.385-10.212,2.385c-4.796,0-8.816-0.802-12.057-2.406
							c-3.242-1.603-5.784-4.016-7.628-7.237C129.376,55.375,128.406,51.732,128.309,47.667z"/>
					</g>
					<g>
						<path fill="#39C973" d="M205.529,53.016c3.699,0.524,5.364,4.556,3.7,8.958c0,0,0,0-2.868,2.488s-6.532,3.733-10.991,3.733
							c-5.615,0-10.067-1.984-13.357-5.951s-4.934-9.533-4.934-16.692c0-7.409,1.663-13.161,4.989-17.252s7.64-6.138,12.942-6.138
							c5.135,0,9.328,2.005,12.581,6.013c3.254,4.009,4.881,9.649,4.881,16.921c0,0.442-0.013,1.105-0.036,1.991h-14.034
							c-8.029,0-13.953,3.845-13.165,8.544c0,0,0,0,2.146,2.572c2.145,2.572,4.82,3.857,8.025,3.857c2.386,0,4.423-0.719,6.11-2.157
							C203.202,58.464,204.54,56.168,205.529,53.016z M184.164,40.949h6.84c8.029,0,14.099-2.917,13.489-6.483c0,0,0,0-1.35-1.853
							c-2.073-2.876-4.76-4.313-8.062-4.313c-2.989,0-5.502,1.148-7.538,3.443C185.507,34.037,184.38,37.106,184.164,40.949z"/>
					</g>
					<g>
						<path fill="#39C973" d="M246.706,53.016c3.699,0.524,5.363,4.556,3.699,8.958c0,0,0,0-2.868,2.488s-6.531,3.733-10.99,3.733
							c-5.615,0-10.067-1.984-13.357-5.951s-4.934-9.533-4.934-16.692c0-7.409,1.663-13.161,4.989-17.252
							c3.327-4.091,7.64-6.138,12.942-6.138c5.133,0,9.327,2.005,12.581,6.013c3.253,4.009,4.88,9.649,4.88,16.921
							c0,0.442-0.012,1.105-0.035,1.991h-14.034c-8.029,0-13.953,3.845-13.165,8.544c0,0,0,0,2.146,2.572
							c2.145,2.572,4.82,3.857,8.025,3.857c2.386,0,4.423-0.719,6.11-2.157C244.38,58.464,245.718,56.168,246.706,53.016z
							 M225.34,40.949h6.84c8.029,0,14.099-2.917,13.489-6.483c0,0,0,0-1.35-1.853c-2.074-2.876-4.76-4.313-8.062-4.313
							c-2.989,0-5.502,1.148-7.538,3.443C226.684,34.037,225.556,37.106,225.34,40.949z"/>
					</g>
				</g>
			</g>
			<g enable-background="new    ">
				<g>
					<path fill="#39C973" d="M265.313,67.201c-1.789,0-3.254-4.18-3.254-9.29v-42.22c0-5.109,1.464-9.29,3.254-9.29
						s3.254,4.18,3.254,9.29v16.091c0,5.109,2.725,6.119,6.056,2.245l3.289-3.826c3.331-3.875,7.951-7.044,10.267-7.044
						s1.417,3.109-1.996,6.912l-2.261,2.518c-3.415,3.801-4.102,10.523-1.527,14.935l6.799,11.655
						c2.575,4.414,2.875,8.024,0.668,8.024s-6.065-3.642-8.573-8.093l-3.569-6.333c-2.508-4.451-5.594-6.955-6.856-5.563
						c-1.262,1.392-2.295,6.458-2.295,11.259S267.101,67.201,265.313,67.201z"/>
				</g>
			</g>
			<g>
				<path fill="#39C973" d="M184.531,26.103c0,0-11.279-3.498-4.584-10.722L184.531,26.103z"/>
				<path fill="#39C973" d="M184.676,18.961"/>
				<path fill="#39C973" d="M179.947,15.381"/>
				<path fill="#39C973" d="M184.765,19.227c1.197,2.664-0.235,6.876-0.235,6.876L184.765,19.227z"/>
				<path fill="#39C973" d="M184.765,19.227"/>
				<path fill="#39C973" d="M179.947,15.381c2.491,0.593,4.819,3.846,4.819,3.846"/>
			</g>
			<g>
				<path fill="#39C973" d="M194.546,22.411c0,0-9.492-7.026-0.787-11.633L194.546,22.411z"/>
				<path fill="#39C973" d="M197.039,15.718"/>
				<path fill="#39C973" d="M193.759,10.777"/>
				<path fill="#39C973" d="M197.037,15.998c0.251,2.909-2.491,6.413-2.491,6.413L197.037,15.998z"/>
				<path fill="#39C973" d="M197.037,15.998"/>
				<path fill="#39C973" d="M193.759,10.777c2.155,1.383,3.278,5.221,3.278,5.221"/>
			</g>
			<g>
				<path fill="#39C973" d="M237.077,22.314c0,0-8.934-7.722,0.093-11.66L237.077,22.314z"/>
				<path fill="#39C973" d="M240.07,15.828"/>
				<path fill="#39C973" d="M237.17,10.654"/>
				<path fill="#39C973" d="M240.044,16.107c0.031,2.92-2.969,6.207-2.969,6.207L240.044,16.107z"/>
				<path fill="#39C973" d="M240.044,16.107"/>
				<path fill="#39C973" d="M237.17,10.654c2.045,1.541,2.875,5.453,2.875,5.453"/>
			</g>
			<g>
				<path fill="#39C973" d="M246.014,25.553c0,0-5.303-10.551,4.544-10.738L246.014,25.553z"/>
				<path fill="#39C973" d="M251.258,20.704"/>
				<path fill="#39C973" d="M250.558,14.814"/>
				<path fill="#39C973" d="M251.128,20.952c-1.088,2.71-5.116,4.6-5.116,4.6L251.128,20.952z"/>
				<path fill="#39C973" d="M251.128,20.952"/>
				<path fill="#39C973" d="M250.558,14.814c1.301,2.206,0.572,6.138,0.572,6.138"/>
			</g>
			<path fill="#39C973" d="M192.835,28.537"/>
		</g>
	</g>
</g>
</svg>
