<?xml version="1.0" encoding="utf-8"?>
<!-- Generator: Adobe Illustrator 17.0.0, SVG Export Plug-In . SVG Version: 6.00 Build 0)  -->
<!DOCTYPE svg PUBLIC "-//W3C//DTD SVG 1.1//EN" "http://www.w3.org/Graphics/SVG/1.1/DTD/svg11.dtd">
<svg version="1.1" id="Layer_1" xmlns="http://www.w3.org/2000/svg" xmlns:xlink="http://www.w3.org/1999/xlink" x="0px" y="0px"
	 width="318px" height="73px" viewBox="0 0 318 73" enable-background="new 0 0 318 73" xml:space="preserve">
<g enable-background="new    ">
	
		<image overflow="visible" opacity="0.75" width="239" height="89" xlink:href="589243A9.png"  transform="matrix(1 0 0 1 22.5 -8)">
	</image>
	<g>
		<g>
			<g>
				<g>
					<path fill="#29D36D" d="M40.81,64.219c-1.716,0-3.12-3.859-3.12-8.575v-38.97c0-4.716,2.193-8.575,4.872-8.575
						c2.679,0,5.951,3.704,7.27,8.232l6.781,23.271c1.319,4.527,3.23,11.143,4.246,14.702c0,0,0,0,0.489,1.837
						c0.556-2.042,1.423-5.039,2.603-8.996l9.248-30.832c1.355-4.518,4.423-8.213,6.818-8.213c2.395,0,4.355,3.859,4.355,8.575
						v38.97c0,4.716-1.404,8.575-3.12,8.575c-1.716,0-3.12-3.859-3.12-8.575v-29.82c0-4.716-1.117-4.881-2.484-0.367L66.4,56.012
						c-1.366,4.514-3.797,8.207-5.403,8.207c-1.606,0-4.015-3.699-5.354-8.222l-9.279-31.33c-1.339-4.523-2.435-4.363-2.435,0.353
						v30.624C43.93,60.361,42.526,64.219,40.81,64.219z"/>
				</g>
				<g>
					<path fill="#29D36D" d="M119.961,64.219c-1.477,0-2.686-1.344-2.686-2.986c0-1.643-2.65-0.18-5.887,3.249
						c0,0-0.62,0.655-5.358,0.655c-2.092,0-4.044-0.459-5.857-1.378s-3.159-2.073-4.037-3.464c-0.878-1.392-1.496-3.094-1.852-5.111
						c-0.245-1.352-0.367-3.496-0.367-6.431V32.14c0-4.716,1.351-8.575,3.004-8.575s3.004,3.859,3.004,8.575v5.397
						c0,4.716,0.055,11.286,0.122,14.598c0,0,0,0,0.245,1.251c0.379,1.812,1.178,3.235,2.402,4.268
						c1.224,1.034,2.735,1.551,4.538,1.551c1.803,0,3.492-0.53,5.073-1.589c1.579-1.058,2.697-2.501,3.354-4.325
						c0.655-1.824,0.985-4.472,0.985-7.943V32.14c0-4.716,1.351-8.575,3.002-8.575s3.002,3.859,3.002,8.575v23.505
						C122.647,60.361,121.438,64.219,119.961,64.219z"/>
				</g>
				<g>
					<path fill="#29D36D" d="M130.621,46.189L130.621,46.189c3.359-0.337,6.539,1.687,7.068,4.498c0,0,0,0,1.057,1.799
						c1.056,1.799,2.697,3.253,4.922,4.365c2.225,1.11,4.727,1.665,7.508,1.665c2.47,0,4.649-0.421,6.54-1.263
						c1.89-0.843,3.298-1.997,4.221-3.464c0.924-1.467,1.385-3.069,1.385-4.804c0-1.761-0.446-3.298-1.335-4.613
						c-0.891-1.314-2.358-2.418-4.405-3.311c-1.313-0.587-4.216-1.499-8.709-2.737c-4.493-1.238-7.641-2.405-9.443-3.502
						c-2.336-1.404-4.077-3.144-5.222-5.226c-1.147-2.08-1.719-4.409-1.719-6.986c0-2.833,0.701-5.48,2.102-7.943
						c1.403-2.462,3.448-4.331,6.141-5.608c2.691-1.276,5.684-1.915,8.977-1.915c3.626,0,6.824,0.67,9.594,2.01
						s4.9,3.311,6.391,5.914c1.49,2.603,2.291,5.55,2.402,8.843l0,0c-3.414,0.295-6.865-2.266-7.669-5.691c0,0,0,0-1.924-1.812
						c-1.924-1.812-4.766-2.718-8.526-2.718c-3.915,0-6.768,0.823-8.559,2.47c-1.791,1.646-2.686,3.631-2.686,5.952
						c0,2.016,0.635,3.675,1.902,4.977c1.246,1.302,4.499,2.635,9.76,4.001c5.261,1.366,8.871,2.559,10.829,3.579
						c2.847,1.505,4.95,3.413,6.306,5.723c1.356,2.31,2.036,4.971,2.036,7.982c0,2.986-0.745,5.799-2.236,8.441
						c-1.491,2.642-3.632,4.695-6.424,6.163c-2.792,1.467-5.935,2.201-9.426,2.201c-4.427,0-8.137-0.74-11.129-2.221
						c-2.993-1.48-5.338-3.707-7.041-6.68C131.606,53.304,130.711,49.941,130.621,46.189z"/>
				</g>
				<g>
					<path fill="#29D36D" d="M201.897,51.127c3.414,0.484,4.951,4.205,3.415,8.268c0,0,0,0-2.647,2.297
						c-2.647,2.297-6.029,3.446-10.145,3.446c-5.183,0-9.293-1.831-12.329-5.493c-3.037-3.661-4.554-8.799-4.554-15.408
						c0-6.839,1.535-12.148,4.605-15.924s7.052-5.665,11.946-5.665c4.739,0,8.61,1.851,11.613,5.55
						c3.004,3.701,4.505,8.907,4.505,15.618c0,0.408-0.012,1.02-0.033,1.837h-12.954c-7.411,0-12.879,3.549-12.152,7.886
						c0,0,0,0,1.981,2.374c1.98,2.374,4.449,3.56,7.407,3.56c2.202,0,4.083-0.664,5.64-1.991
						C199.75,56.155,200.984,54.036,201.897,51.127z M182.176,39.988h6.313c7.411,0,13.014-2.692,12.451-5.984c0,0,0,0-1.246-1.71
						c-1.913-2.654-4.394-3.981-7.442-3.981c-2.759,0-5.079,1.06-6.958,3.178C183.416,33.609,182.376,36.441,182.176,39.988z"/>
				</g>
				<g>
					<path fill="#29D36D" d="M239.905,51.127c3.414,0.484,4.95,4.205,3.414,8.268c0,0,0,0-2.647,2.297s-6.028,3.446-10.144,3.446
						c-5.183,0-9.293-1.831-12.329-5.493c-3.037-3.661-4.554-8.799-4.554-15.408c0-6.839,1.535-12.148,4.605-15.924
						c3.071-3.777,7.052-5.665,11.946-5.665c4.738,0,8.609,1.851,11.613,5.55c3.002,3.701,4.504,8.907,4.504,15.618
						c0,0.408-0.011,1.02-0.032,1.837h-12.954c-7.411,0-12.879,3.549-12.152,7.886c0,0,0,0,1.981,2.374
						c1.98,2.374,4.449,3.56,7.407,3.56c2.202,0,4.083-0.664,5.64-1.991C237.758,56.155,238.993,54.036,239.905,51.127z
						 M220.183,39.988h6.313c7.411,0,13.014-2.692,12.451-5.984c0,0,0,0-1.246-1.71c-1.915-2.654-4.394-3.981-7.442-3.981
						c-2.759,0-5.079,1.06-6.958,3.178C221.424,33.609,220.383,36.441,220.183,39.988z"/>
				</g>
			</g>
		</g>
	</g>
</g>
<g enable-background="new    ">
	
		<image overflow="visible" opacity="0.75" width="58" height="87" xlink:href="589243AB.png"  transform="matrix(1 0 0 1 238.5 -7)">
	</image>
	<g>
		<g>
			<g>
				<path fill="#29D36D" d="M257.079,64.219c-1.651,0-3.004-3.859-3.004-8.575v-38.97c0-4.716,1.351-8.575,3.004-8.575
					c1.652,0,3.004,3.859,3.004,8.575v14.853c0,4.716,2.515,5.648,5.59,2.073l3.035-3.532c3.075-3.577,7.339-6.502,9.476-6.502
					s1.308,2.87-1.842,6.38l-2.087,2.324c-3.152,3.508-3.786,9.713-1.41,13.786l6.275,10.758c2.376,4.074,2.653,7.406,0.616,7.406
					c-2.037,0-5.598-3.361-7.913-7.47l-3.294-5.846c-2.315-4.109-5.163-6.42-6.328-5.135c-1.165,1.285-2.118,5.961-2.118,10.393
					S258.73,64.219,257.079,64.219z"/>
			</g>
		</g>
	</g>
</g>
<g>
	<image overflow="visible" opacity="0.75" width="38" height="41" xlink:href="589243AE.png"  transform="matrix(1 0 0 1 160.5 1)">
	</image>
	<g>
		<g>
			<path fill="#29D36D" d="M182.516,26.285c0,0-10.411-3.229-4.231-9.896L182.516,26.285z"/>
			<path fill="#29D36D" d="M182.649,19.693"/>
			<path fill="#29D36D" d="M178.285,16.388"/>
			<path fill="#29D36D" d="M182.731,19.938c1.105,2.458-0.217,6.347-0.217,6.347L182.731,19.938z"/>
			<path fill="#29D36D" d="M182.731,19.938"/>
			<path fill="#29D36D" d="M178.285,16.388c2.299,0.548,4.448,3.55,4.448,3.55"/>
		</g>
	</g>
</g>
<g>
	
		<image overflow="visible" opacity="0.75" width="37" height="41" xlink:href="589243AF.png"  transform="matrix(1 0 0 1 172.5 -3)">
	</image>
	<g>
		<g>
			<path fill="#29D36D" d="M191.759,22.877c0,0-8.761-6.485-0.726-10.738L191.759,22.877z"/>
			<path fill="#29D36D" d="M194.061,16.699"/>
			<path fill="#29D36D" d="M191.033,12.139"/>
			<path fill="#29D36D" d="M194.058,16.958c0.232,2.685-2.299,5.919-2.299,5.919L194.058,16.958z"/>
			<path fill="#29D36D" d="M194.058,16.958"/>
			<path fill="#29D36D" d="M191.033,12.139c1.989,1.276,3.026,4.819,3.026,4.819"/>
		</g>
	</g>
</g>
<g>
	
		<image overflow="visible" opacity="0.75" width="38" height="41" xlink:href="589243AA.png"  transform="matrix(1 0 0 1 211.5 -3)">
	</image>
	<g>
		<g>
			<path fill="#29D36D" d="M231.017,22.787c0,0-8.246-7.128,0.086-10.763L231.017,22.787z"/>
			<path fill="#29D36D" d="M233.779,16.801"/>
			<path fill="#29D36D" d="M231.103,12.025"/>
			<path fill="#29D36D" d="M233.756,17.058c0.028,2.695-2.74,5.729-2.74,5.729L233.756,17.058z"/>
			<path fill="#29D36D" d="M233.756,17.058"/>
			<path fill="#29D36D" d="M231.103,12.025c1.888,1.422,2.653,5.033,2.653,5.033"/>
		</g>
	</g>
</g>
<g>
	<image overflow="visible" opacity="0.75" width="37" height="41" xlink:href="589243A5.png"  transform="matrix(1 0 0 1 222.5 0)">
	</image>
	<g>
		<g>
			<path fill="#29D36D" d="M239.266,25.777c0,0-4.895-9.738,4.194-9.911L239.266,25.777z"/>
			<path fill="#29D36D" d="M244.107,21.301"/>
			<path fill="#29D36D" d="M243.46,15.865"/>
			<path fill="#29D36D" d="M243.987,21.53c-1.004,2.501-4.722,4.246-4.722,4.246L243.987,21.53z"/>
			<path fill="#29D36D" d="M243.987,21.53"/>
			<path fill="#29D36D" d="M243.46,15.865c1.2,2.036,0.528,5.665,0.528,5.665"/>
		</g>
	</g>
</g>
<g>
	<g opacity="0.75">
		<path fill="#66F7A1" d="M190.18,28.531"/>
	</g>
	<g>
		<path fill="#29D36D" d="M190.18,28.531"/>
	</g>
</g>
</svg>
